<?xml version="1.0" encoding="utf-8"?>
<!-- Generator: Adobe Illustrator 21.0.0, SVG Export Plug-In . SVG Version: 6.00 Build 0)  -->
<svg version="1.1" id="Layer_1" xmlns="http://www.w3.org/2000/svg" xmlns:xlink="http://www.w3.org/1999/xlink" x="0px" y="0px"
	 viewBox="0 0 381 462" style="enable-background:new 0 0 381 462;" xml:space="preserve">
<style type="text/css">
	.st0{filter:url(#filter-1);}
	.st1{fill:#FFF2D8;}
</style>
<filter  filterUnits="objectBoundingBox" height="132.9%" id="filter-1" width="139.2%" x="-19.6%" y="-16.5%">
	<feOffset  dx="0" dy="12" in="SourceAlpha" result="shadowOffsetOuter1"></feOffset>
	<feGaussianBlur  in="shadowOffsetOuter1" result="shadowBlurOuter1" stdDeviation="12"></feGaussianBlur>
	
		<feColorMatrix  in="shadowBlurOuter1" result="shadowMatrixOuter1" type="matrix" values="0 0 0 0 0   0 0 0 0 0   0 0 0 0 0  0 0 0 0.2 0">
		</feColorMatrix>
	<feMerge>
		<feMergeNode  in="shadowMatrixOuter1"></feMergeNode>
		<feMergeNode  in="SourceGraphic"></feMergeNode>
	</feMerge>
</filter>
<title>Fill 2</title>
<desc>Created with Sketch.</desc>
<g id="Page-1">
	<g id="Compass" transform="translate(0.000000, -236.000000)">
		<g id="Group-2" transform="translate(17.000000, 246.000000)" class="st0">
			<g id="Fill-2_1_">
				<g>
					<path id="path-2_2_" class="st1" d="M0,186.9c-0.6,4.3,31.3,9.6,30.8,14.2c-0.4,3.6-25.3,7.2-25.6,10.9
						c-2.4,28.4-5.3,120.6,2.2,160c20.6-10.4,41.3-10.7,61.9-6.3c4.3-3.3,6.2-6.8,5.7-10.5c10,1.7,17,6.2,23.6,11.1
						c33-12.1,76.6-0.8,112.2,2.9c-0.1-4.8,0.5-9.5,3.8-13.7c5.7,2.6,8.5,6.7,8.3,12.1c21.6-10.2,45-0.7,70.1-1.4
						c2.6-15.7,29.7-2.9,50.5,1c4-21.1,9.9-119.5,7.5-152.4c-5.2-6.6-23.7-9.5-29.7-12.2c5.4-2.1,20.6-10,26.4-10.6
						c-2-29.1,4.5-69.9-13.4-73.3c1.1-16.7,7.3-34.4,0-48.6c-31.9,4.7-76.6,15.1-95.9,1.1c-23.4,22.5-73.7,17.1-129.6,5.8
						c-7.2,4.2-12,9.5-14,15.8c-4.9-6-13-3.2-20.4-2.1c0.5-5.4-0.1-11-5.1-17.4c-20.4,8.2-38.4,9.8-60.5,1.2
						C17.9,113.3,6.1,139.6,0,186.9z"/>
				</g>
				<g>
					
						<image style="overflow:visible;" width="782" height="665" xlink:href="DE1AADFD4EA19AB1.png"  transform="matrix(0.48 0 0 0.48 -11.9558 61.242)">
					</image>
				</g>
			</g>
		</g>
	</g>
</g>
</svg>
