<svg fill="none" height="80" viewBox="0 0 45 80" width="45" xmlns="http://www.w3.org/2000/svg" xmlns:xlink="http://www.w3.org/1999/xlink"><linearGradient id="a" gradientUnits="userSpaceOnUse" x1="47.081" x2="2.72554" y1="67.7045" y2="13.6885"><stop offset="0" stop-color="#ff7fa1"/><stop offset=".1354" stop-color="#ec82aa"/><stop offset=".4105" stop-color="#ba8bc3"/><stop offset=".7971" stop-color="#6b99e9"/><stop offset="1" stop-color="#3fa1ff"/></linearGradient><path d="m21.251 0-18.4363 13.2081-2.8147 17.59 2.8147 14.1784 2.84988 15.2113 9.11262 19.2175 12.455.5947-3.0258-7.6995-2.9554-7.3866 5.9812 15.0861 15.3049-17.903 2.4629-23.1925-3.6239-12.989z" fill="url(#a)"/><g fill="#fff"><path d="m21.251 0-18.4363 13.2081h5.48866z" opacity=".66"/><path d="m14.6011 22.0657-6.29788-8.8576 12.94758-13.2081z" opacity=".6"/><path d="m6.82568 27.0111 1.47772-13.8028 6.2979 8.8575z" opacity=".5"/><path d="m0 30.7982 6.82564-3.7871 1.47772-13.8028h-5.48866z" opacity=".77"/><path d="m14.6013 22.0657 12.631-.0626-5.9813-22.0031z" opacity=".78"/><path d="m41.3761 25.9155-14.1439-3.9124-5.9812-22.0031z" opacity=".2"/><path d="m12.0328 47.7934h-6.36825l1.16106-20.7825 7.77559-4.9452z" opacity=".77"/><path d="m2.8147 44.9766 2.84988 2.8169 1.16106-20.7825-6.82564 3.7872z" opacity=".7"/><path d="m31.3136 64.914h-10.0625l-9.2181-17.1205 2.5684-25.7277 12.6309-.0626 7.6349 22.9734z" opacity=".5"/><path d="m45 38.9046-3.624-12.9891-14.1438-3.9123 7.6348 22.9734z" opacity=".12"/><path d="m42.5371 62.097-11.2236 2.8169 3.5535-19.9374 10.133-6.072z" opacity=".08"/><path d="m5.66455 47.7935 8.93665 16.0876 6.6497 1.0329-9.2181-17.1205z" opacity=".62"/><path d="m5.66458 60.1878 8.93662 3.6933-8.93662-16.0876-2.84988-2.8169z" opacity=".71"/><path d="m27.2322 80.0001 4.0813-15.086h-10.0625z" opacity=".22"/><path d="m42.5371 62.0972-15.3049 17.9029 4.0813-15.086z" opacity=".01"/><path d="m14.6013 63.8811 9.6052 8.4194-2.9555-7.3865z" opacity=".3"/><path d="m27.2323 80-8.796-7.543-3.835-8.5759 9.6052 8.4194z" opacity=".08"/><path d="m5.66455 60.1877 9.11255 19.2176-1.3369-11.2989z" opacity=".3"/><path d="m27.2321 80.0001-12.455-.5947 3.6591-6.9484z" opacity=".23"/><path d="m13.4402 68.1064 1.337 11.2989 3.6591-6.9483z" opacity=".08"/><path d="m5.66455 60.1877 8.93665 3.6933 3.835 8.5759-4.996-4.3505z" opacity=".22"/></g></svg>