<svg fill="none" height="100" viewBox="0 0 80 100" width="80" xmlns="http://www.w3.org/2000/svg" xmlns:xlink="http://www.w3.org/1999/xlink"><linearGradient id="a" gradientUnits="userSpaceOnUse" x1="62.6304" x2="15.2351" y1="85.8917" y2="16.1943"><stop offset="0" stop-color="#ff27b0"/><stop offset=".1223" stop-color="#ef3aa0"/><stop offset=".371" stop-color="#c46c78"/><stop offset=".7199" stop-color="#80bb38"/><stop offset="1" stop-color="#46ff00"/></linearGradient><path d="m32.8446 99.2662 5.9991-3.4651 6.7365 3.4651 17.6288-8.9686v-5.5035l-.7373-.5707 13.6741-29.8002-2.5136-3.4652 1.3741-12.9229.134-1.3861-5.1612-1.7937 10.0209-13.5752-4.2229-21.2801-15.0817 5.13657-3.1839-1.87526-6.4683 6.5634-4.3905 8.43869 1.6757-3.2614-5.6975-4.8104-2.7482 3.4244.3016-.3669-19.7067-9.86549-8.6804 16.42889-.8043 1.4676 1.0054 2.4459 4.1559 10.3547 3.2509 22.0139-1.5417.9376 1.5417-.9376-3.2509-22.0139-5.1613-12.8006 2.5806 16.1027-6.46835.7338-1.8098 10.9662-5.29535-.3669 3.31797 22.6253 11.79723 7.8679-4.9602 3.7913 3.4185 10.3954 9.7529-2.2829 7.0381 8.8871z" fill="url(#a)"/><g fill="#fff"><path d="m33.582 47.6152 22.5555 16.3066-.3351.2038c-.067.0408-.2011.1223-.3016.2039-2.7147 1.7121-13.2384 8.3571-17.4948 10.8846 0-.0408-.0335-.0408-.0335-.0816-.1341-.3668-.3017-.7745-.6033-1.2637-.8043-1.4268-1.3741-2.5275-1.6422-2.5275-.4357-4.7289-1.106-11.9038-1.5752-17.1219l-.2011-2.1606c-.0335-.3262-.067-.6523-.1005-.9377-.0336-.2853-.0671-.5707-.0671-.8153v-.0815c-.0335-.2446-.0335-.4892-.067-.693z" opacity=".34"/><path d="m9.71924 61.9242 23.82906-14.309.1676 1.9161.067.693v.0815l.0671.8153.1005.9377.2011 2.1606 1.5752 17.1219c-.2346.0407-.4022.4484-.5363 2.1606-.067.9376-.2681 1.5084-.4356 1.9568z" opacity=".77"/><path d="m35.0566 88.9117.7709-8.3571c.134.6115.0335.8153.7708-.7338.7374-1.5492 1.4077-1.4676 1.5417-2.6906.067-.7746.1006-1.3045-.1005-1.9568 0-.0408-.0335-.0408-.0335-.0815l17.4947-10.8031.3017-.2039.3351-.2038-3.5861 8.8463-6.6359 9.9063z" opacity=".01"/><path d="m34.7884 75.4588c-.1341.3669-.2682.6522-.2682 1.0191-.067.8561.1676 1.3861.2347 1.5492.6032 1.5898.9384 1.916 1.0724 2.5275l-.7708 8.3571-3.4856-2.4868-2.413 1.06v-1.06l-12.9703-6.4818-6.46836-18.0188z" opacity=".35"/><path d="m34.5205 76.4779c.0335-.3669.134-.6931.2681-1.0192.1676-.4484.3686-1.0191.4357-1.9568.134-1.7122.3016-2.1198.5362-2.1606.2346 0 .8379 1.1007 1.6422 2.5275.2682.4892.4693.8969.6033 1.2638 0 .0407 0 .0407.0335.0815.2011.6523.1676 1.1822.1006 1.9568-.1006 1.223-.8044 1.1415-1.5417 2.6906s-.6368 1.3453-.7709.7338c-.134-.6115-.5027-.9377-1.0724-2.5275-.0671-.1631-.3017-.6931-.2346-1.5899z" opacity=".49"/><path d="m17.4277 57.2766-.7374-3.6282-6.97106 2.8537v5.4219z" opacity=".02"/><path d="m0 48.7158 9.71931 7.7864v5.4219l1.80979 5.0551-8.21113 4.362z" opacity=".73"/><path d="m16.1541 79.943-12.83623-8.6017 8.21113-4.3621z" opacity=".16"/><path d="m16.6904 53.6486-.5362-3.8729-16.1542-1.0599 9.71931 7.7864z" opacity=".45"/><path d="m30.3645 94.0481 1.2065-7.6233 3.4856 2.4868 1.8098 1.3045 1.9774 5.585z" opacity=".34"/><path d="m23.3264 91.1129 5.8316-3.6282 2.4131-1.0599-1.2066 7.6233z" opacity=".8"/><path d="m30.3645 100-7.0381-8.887 7.0381 2.9352z" opacity=".34"/><path d="m32.8446 99.2662-2.4801.7338v-5.9519z" opacity=".16"/><path d="m38.8438 95.8011-5.9992 3.4651-2.4801-5.2181z" opacity=".01"/><path d="m23.3263 91.113-9.7528 2.2829 3.8542-6.7672z" opacity=".34"/><path d="m29.1579 86.4248v1.0599l-5.8316 3.6282-5.8986-4.4843z" opacity=".01"/><path d="m13.5735 93.3957-3.4185-10.3955 7.2728 3.6283z" opacity=".86"/><path d="m15.1152 79.209 2.3126 7.4195-7.2728-3.6282z" opacity=".8"/><path d="m29.158 86.4246c-.2682 0-11.6967.2039-11.6967.2039l-2.3461-7.4195z" opacity=".34"/><path d="m38.8438 95.8011 6.7365 3.4651-.7373-4.4435-7.9765-4.6066z" opacity=".2"/><path d="m35.0566 88.9116 10.8589-6.2781 4.558 2.1607z" opacity=".21"/><path d="m44.843 94.8227 5.6305-10.0285-15.4169 4.1174 1.8098 1.3045z" opacity=".8"/><path d="m45.9153 82.6334 10.222-3.4244-5.664 5.585z" opacity=".08"/><path d="m45.5801 99.2663 17.6288-8.9686v-5.5035l-18.3661 10.0285z" opacity=".09"/><path d="m56.1374 79.209 7.0716 5.585h-12.7356z" opacity=".01"/><path d="m44.8428 94.8227 18.3661-10.0285h-12.7356z" opacity=".16"/><path d="m5.29541 49.0829 1.8098-10.9662 6.83699 10.1916-.3686 1.3045z" opacity=".73"/><path d="m13.5736 37.3828-6.46838.7338 6.83708 10.1916 1.4746-1.4676z" opacity=".5"/><path d="m16.1541 49.7758-2.5806-.1631.3686-1.3045 1.4747-1.4676z" opacity=".16"/><path d="m63.2091 36.5676 4.6585-8.724-11.7302-7.4603-14.1433 22.4623 6.6695-4.7289 1.8098-1.6714 11.1605-1.3046z" opacity=".16"/><path d="m75.7772 0-7.9095 27.8435-11.7302-7.4603z" opacity=".78"/><path d="m72.2916 27.8435h-4.4239l7.9095-27.8435z" opacity=".6"/><path d="m79.9999 21.2801-4.2228-21.2801-3.4856 27.8435z" opacity=".01"/><path d="m56.1375 20.3832-5.0943-10.55849 6.4684-6.5634 3.1839 1.87526 15.0817-5.13657z" opacity=".85"/><path d="m41.9942 42.8455-.7708-14.2275 9.8198-18.79329 5.0943 10.55849z" opacity=".39"/><path d="m61.3323 83.3266 4.625-19.4456-9.8198-4.4843v4.4843l-2.1115 5.2181-2.2455 11.5777 4.357-1.4676z" opacity=".08"/><path d="m76.1459 54.4231-10.1886 9.4578-4.625 19.4456 1.1395.8968z" opacity=".02"/><path d="m42.6309 54.1377 13.5065 5.2589v4.4843z" opacity=".21"/><path d="m38.8103 51.4064 3.1839-8.5609 3.5861 3.3428-2.9493 7.9494z" opacity=".45"/><path d="m50.4734 36.4453-4.8932 9.7432-3.5861-3.3429 6.6695-4.7289z" opacity=".49"/><path d="m61.6339 35.1406-7.6078 11.0477h-8.4458l4.8932-9.7431z" opacity=".73"/><path d="m42.6309 54.1377 11.395-7.9495h-8.4457z" opacity=".86"/><path d="m56.1374 59.3965-2.1115-13.2083-11.395 7.9495z" opacity=".73"/><path d="m65.9572 63.8809-11.9313-17.6927 2.1114 13.2083z" opacity=".49"/><path d="m76.1457 54.4231-12.9367-17.8557-1.5752-1.4268-7.6079 11.0477 11.9313 17.6927z" opacity=".45"/><path d="m41.2231 28.6181-1.5752-14.6759 2.9829-3.7505 3.385 9.2132z" opacity=".67"/><path d="m48.3284 15.0021-5.6975-4.8104 3.385 9.2132z" opacity=".31"/><path d="m72.2915 27.8435-6.3343 12.5153-2.7482-3.7913 4.6586-8.724z" opacity=".2"/><path d="m80 21.28-14.0427 19.0787 6.3343-12.5153z" opacity=".12"/><path d="m73.6322 50.958-7.6749-10.5993 4.0218-5.5035 5.1612 1.7937z" opacity=".16"/><path d="m71.7554 41.1742s2.279-2.0383 2.6141-2.4867c.3352-.4485.6033-.6115.6033-.6115l.134-1.3861-.9049-.3261s.0671.7745-.2346 1.3453c-.3016.4892-2.2119 3.4651-2.2119 3.4651z" opacity=".2"/><path d="m33.5819 21.7691c.9384-1.6714 2.0779-2.3644.8379-1.8752l3.0498-3.2613 3.1169 6.1149.6368 5.8704.7708 14.2275-3.1839 8.5201-5.2283-3.7912-1.5752-12.4338c.067-1.223.1341-3.139.1676-4.0359.1005-1.7529-.0671-2.609-.2346-4.8104-.2011-2.1606.7038-2.8536 1.6422-4.5251z" opacity=".16"/><path d="m11.9983 23.7261s.8379-.4484 1.9103-.5707c1.0725-.1223 1.5752-.2446 2.212-.2446s2.6477-.2446 2.2455-.6115l10.3226 1.4268c.2346.7338.4357 1.5084.6368 2.1199.5697 1.8345.1676 1.2638 1.24 3.0167 1.0725 1.7122.6033 2.6498 1.039 6.278.2011 1.8345.3351 1.2638.4357 0l1.5752 12.4338-14.1768 8.5202-3.2509-22.0139z" opacity=".4"/><path d="m17.4278 57.2768 1.9774-1.1823-3.251-22.0138-5.1613-12.8007 2.5807 16.1028 1.8433 9.4578.7373 2.9351.5362 3.8729z" opacity=".5"/><path d="m11.7974 19.8124 8.7138-16.42886 1.0725 2.24216c-.5697.1223.8044 1.67142.7708 3.30208-.0335 1.63062 2.4801 4.97352 3.7202 7.41952 1.24 2.4459.4357 1.5899 1.5417 4.0766.2346.53.6368 1.916 1.0389 3.3428l-10.3225-1.4268c-.4022-.3669-2.1785-1.4268-4.0218-1.6714-1.8433-.3261-2.5136-.8561-2.5136-.8561z" opacity=".86"/><path d="m10.9929 21.2801.8044-1.4676s.7038.53 2.5471.8153c1.8433.2854 3.6196 1.3046 4.0218 1.6715s-1.6087.6114-2.2455.6114-1.106.1223-2.212.2446c-1.0725.1223-1.9103.5708-1.9103.5708z" opacity=".73"/><path d="m40.1843 13.249-.5362.693.9719 8.8056-3.1169-6.115-3.0498 3.2613c-1.2401.4892-2.145 2.6906-2.8823 2.4053-.7708-.2854-1.0725-1.7122-2.5136-3.3837-1.4076-1.7121-1.2736-3.5874-2.1115-5.2181-.8378-1.6306-1.9438-3.0982-3.1503-5.38112-1.2066-2.32369-1.5752-2.77212-2.145-2.69058l-1.0725-2.24216z" opacity=".5"/><path d="m21.5835 5.62592c.5698-.1223.9384.3669 2.145 2.69058 1.2065 2.3237 2.3125 3.7505 3.1504 5.3812.8378 1.6306.7038 3.5466 2.1114 5.2181 1.4076 1.7122 1.7428 3.0982 2.5136 3.3836.7709.2853 1.6422-1.916 2.8823-2.4052 1.24-.4892.1005.2038-.8379 1.8752s-1.8098 2.3645-1.6422 4.5659c.1676 2.2013.3351 3.0574.2346 4.8104-.067.8969-.1005 2.7721-.1676 4.0359-.1005 1.223-.2011 1.7937-.4357 0-.4357-3.6282.0671-4.5659-1.0389-6.2781-1.0725-1.7122-.6703-1.1822-1.2401-3.0167-.2011-.6115-.4022-1.386-.6368-2.1198-.4021-1.4269-.8043-2.8129-1.0389-3.3429-1.106-2.4867-.3017-1.6306-1.5417-4.0766-1.2401-2.446-3.7537-5.7888-3.7202-7.4195.0671-1.63066-1.307-3.17978-.7373-3.30208z" opacity=".8"/></g></svg>