<svg fill="none" height="40" viewBox="0 0 35 40" width="35" xmlns="http://www.w3.org/2000/svg" xmlns:xlink="http://www.w3.org/1999/xlink"><linearGradient id="a" gradientUnits="userSpaceOnUse" x1="32.077" x2="4.05782" y1="13.8566" y2="26.8185"><stop offset="0" stop-color="#ffdb0f"/><stop offset=".1142" stop-color="#efde22"/><stop offset=".3463" stop-color="#c7e654"/><stop offset=".6732" stop-color="#85f2a3"/><stop offset="1" stop-color="#3ffff9"/></linearGradient><clipPath id="b"><path d="m0 0h40v35h-40z" transform="matrix(0 -1 1 0 0 40)"/></clipPath><g clip-path="url(#b)"><path d="m5.88211 7.51658-5.88211061 18.48192 9.13043061 9.7568 13.72497 4.2447 12.1446-8.6367-2.8679-18.423-7.7257-8.19454-9.3061-4.74576066z" fill="url(#a)"/><g fill="#fff"><path d="m8.36954 21.0759-2.48746-13.55929 9.21822 1.50331z" opacity=".3"/><path d="m18.8754 34.7237-10.50589-13.6478.76087 14.6795z" opacity=".68"/><path d="m26.2499 15.9764-11.1496-6.95653-6.73079 12.05603 10.50589 13.6477z" opacity=".45"/><path d="m22.8554 40-3.9799-5.2763-9.74501 1.0316z" opacity=".8"/><path d="m34.9999 31.3633-12.1447 8.6367 7.638-15.7701z" opacity=".36"/><path d="m32.1321 12.9403-1.6388 11.2896 4.5067 7.1334z" opacity=".02"/><path d="m24.4064 4.74582 1.8436 11.23068 4.2433 8.2535 1.6388-11.2896z" opacity=".08"/><path d="m5.88208 7.51646 9.21822-7.5165901 9.306 4.7457701-9.306 4.27413z" opacity=".05"/><path d="m26.2499 15.9763-1.8437-11.23064-9.306 4.27414z" opacity=".1"/><path d="m22.8553 40 7.638-15.7701-11.6179 10.4938z" opacity=".47"/><path d="m26.2499 15.9764-7.3745 18.7472 11.6179-10.4937z" opacity=".37"/><path d="m9.13044 35.7554-9.13044043-9.7568 5.88211043-18.48199 2.48746 13.55929z" opacity=".76"/></g></g></svg>