<?xml version="1.0" encoding="utf-8"?>
<!-- Generator: Adobe Illustrator 21.0.0, SVG Export Plug-In . SVG Version: 6.00 Build 0)  -->
<svg version="1.1" id="Layer_1" xmlns="http://www.w3.org/2000/svg" xmlns:xlink="http://www.w3.org/1999/xlink" x="0px" y="0px"
	 viewBox="0 0 20 23" style="enable-background:new 0 0 20 23;" xml:space="preserve">
<style type="text/css">
	.st0{fill:#FFFFFF;}
</style>
<title>human-skull</title>
<desc>Created with Sketch.</desc>
<g id="Page-1">
	<g id="Map-02" transform="translate(-345.000000, -158.000000)">
		<g id="human-skull" transform="translate(345.000000, 158.000000)">
			<path id="Shape" class="st0" d="M10,3.7c-3.9,0-7,3.1-7,7v3.3c0,0.2,0.1,0.3,0.2,0.4l3,2.3v1.9c0,0.3,0.2,0.6,0.6,0.6h0.4
				c0.3,0,0.6-0.2,0.6-0.6v-0.8c0-0.2,0.2-0.4,0.4-0.4c0.2,0,0.4,0.2,0.4,0.4v0.8c0,0.3,0.2,0.6,0.6,0.6h0c0.3,0,0.6-0.2,0.6-0.6
				v-0.8c0-0.2,0.2-0.4,0.4-0.4h0c0.2,0,0.4,0.2,0.4,0.4v0.8c0,0.3,0.2,0.6,0.6,0.6h0c0.3,0,0.6-0.2,0.6-0.6v-0.8
				c0-0.2,0.2-0.4,0.4-0.4c0.2,0,0.4,0.2,0.4,0.4v0.8c0,0.3,0.2,0.6,0.6,0.6h0.5c0.3,0,0.6-0.2,0.6-0.6v-1.9l3-2.3
				c0.1-0.1,0.2-0.3,0.2-0.4v-3.3C17,6.9,13.9,3.7,10,3.7z M7.1,14.1c-1.1,0-1.9-0.9-1.9-1.9c0-1.1,0.9-1.9,1.9-1.9S9,11.1,9,12.2
				C9,13.3,8.1,14.1,7.1,14.1z M10.6,15.6H9.4c-0.3,0-0.4-0.3-0.3-0.5l0.6-1c0.1-0.2,0.5-0.2,0.6,0l0.6,1
				C11,15.3,10.8,15.6,10.6,15.6z M12.9,14.1c-1.1,0-1.9-0.9-1.9-1.9c0-1.1,0.9-1.9,1.9-1.9c1.1,0,1.9,0.9,1.9,1.9
				C14.9,13.3,14,14.1,12.9,14.1z"/>
		</g>
	</g>
</g>
</svg>
