<svg width="50" height="50" viewBox="0 0 50 50" fill="none" xmlns="http://www.w3.org/2000/svg">
<path fill-rule="evenodd" clip-rule="evenodd" d="M41.1874 15.0625L41.2083 15.0417L33.4583 7.29167L31.2499 9.5L35.6458 13.8958C33.6874 14.6458 32.2916 16.5208 32.2916 18.75C32.2916 21.625 34.6249 23.9583 37.4999 23.9583C38.2499 23.9583 38.9374 23.7917 39.5833 23.5208V38.5417C39.5833 39.6875 38.6458 40.625 37.4999 40.625C36.3541 40.625 35.4166 39.6875 35.4166 38.5417V29.1667C35.4166 26.875 33.5416 25 31.2499 25H29.1666V10.4167C29.1666 8.125 27.2916 6.25 24.9999 6.25H12.4999C10.2083 6.25 8.33325 8.125 8.33325 10.4167V43.75H29.1666V28.125H32.2916V38.5417C32.2916 41.4167 34.6249 43.75 37.4999 43.75C40.3749 43.75 42.7083 41.4167 42.7083 38.5417V18.75C42.7083 17.3125 42.1249 16 41.1874 15.0625ZM24.9999 20.8334H12.4999V10.4167H24.9999V20.8334ZM35.4166 18.75C35.4166 19.8959 36.3541 20.8334 37.4999 20.8334C38.6458 20.8334 39.5833 19.8959 39.5833 18.75C39.5833 17.6042 38.6458 16.6667 37.4999 16.6667C36.3541 16.6667 35.4166 17.6042 35.4166 18.75Z" fill="white"/>
</svg>
