<svg width="100" height="100" viewBox="0 0 100 100" fill="none" xmlns="http://www.w3.org/2000/svg">
<path d="M50 100C77.6142 100 100 77.6142 100 50C100 22.3858 77.6142 0 50 0C22.3858 0 0 22.3858 0 50C0 77.6142 22.3858 100 50 100Z" fill="#FF456A"/>
<path d="M49.8929 96.0921C75.3488 96.0921 95.9849 75.456 95.9849 50C95.9849 24.5441 75.3488 3.90796 49.8929 3.90796C24.4369 3.90796 3.80078 24.5441 3.80078 50C3.80078 75.456 24.4369 96.0921 49.8929 96.0921Z" fill="#011566"/>
<path d="M47.0557 76.1778C48.9293 75.8566 50.803 75.5354 52.6766 75.2677C51.8736 72.8587 52.2484 70.4497 52.2484 70.4497L50.1071 70.878L47.9657 70.4497C47.9122 70.4497 48.3405 73.5546 47.0557 76.1778Z" fill="#001230"/>
<path d="M29.5503 41.1134C29.5503 54.3897 39.8822 72.591 50.0535 72.591C60.2248 72.591 70.2355 54.3897 70.2355 41.1134C70.2355 27.8372 60.2248 21.3062 50.0535 21.3062C39.9357 21.3062 29.5503 27.7837 29.5503 41.1134Z" fill="#92E4AC"/>
<path d="M40.286 56.8236C43.4845 56.0878 45.1315 51.3802 43.9649 46.3088C42.7983 41.2375 39.2597 37.7228 36.0613 38.4585C32.8629 39.1943 31.2158 43.9019 32.3824 48.9733C33.549 54.0447 37.0876 57.5594 40.286 56.8236Z" fill="#001230"/>
<path d="M67.4603 48.9592C68.6269 43.8879 66.9798 39.1803 63.7814 38.4445C60.583 37.7087 57.0444 41.2234 55.8778 46.2948C54.7111 51.3661 56.3582 56.0738 59.5566 56.8095C62.7551 57.5453 66.2936 54.0306 67.4603 48.9592Z" fill="#001230"/>
<path opacity="0.2" d="M40.6205 58.3607C43.8189 57.6249 45.3854 52.5669 44.1193 47.0633C42.8532 41.5598 39.2341 37.6947 36.0356 38.4305C32.8372 39.1662 31.2707 44.2242 32.5368 49.7278C33.8029 55.2314 37.422 59.0965 40.6205 58.3607Z" fill="#001230"/>
<path opacity="0.2" d="M55.5138 46.895C54.336 52.3019 56.1026 57.3875 59.4217 58.1905C62.7407 58.9935 66.4345 55.2462 67.6123 49.8393C68.79 44.4325 67.0234 39.3468 63.7043 38.5438C60.3318 37.6873 56.6915 41.4346 55.5138 46.895Z" fill="#001230"/>
<path d="M50.6424 59.7429C50.9085 59.7429 51.1242 58.952 51.1242 57.9763C51.1242 57.0007 50.9085 56.2097 50.6424 56.2097C50.3764 56.2097 50.1606 57.0007 50.1606 57.9763C50.1606 58.952 50.3764 59.7429 50.6424 59.7429Z" fill="#001230"/>
<path d="M48.2333 59.7429C48.4994 59.7429 48.7151 58.952 48.7151 57.9763C48.7151 57.0007 48.4994 56.2097 48.2333 56.2097C47.9672 56.2097 47.7515 57.0007 47.7515 57.9763C47.7515 58.952 47.9672 59.7429 48.2333 59.7429Z" fill="#001230"/>
<path d="M49.7858 62.7944C46.3597 62.7944 43.2013 62.2055 40.5781 61.2419C42.5589 64.1863 45.9314 66.167 49.7858 66.167C53.6402 66.167 57.0128 64.1863 58.9935 61.2419C56.3169 62.2055 53.1584 62.7944 49.7858 62.7944Z" fill="white"/>
<g opacity="0.2">
<path opacity="0.2" d="M45.1284 66.2741C45.9314 66.7024 46.7344 67.0236 47.5909 67.2913C48.4475 67.5054 49.2505 67.6125 50.107 67.5589C50.9635 67.5589 51.8201 67.3983 52.6231 67.1842C53.4261 66.9165 54.2826 66.5953 55.0321 66.1135C54.4967 66.9165 53.7473 67.4519 52.8907 67.8801C52.0342 68.3084 51.0706 68.5225 50.107 68.5225C49.1434 68.5225 48.1798 68.3619 47.3233 67.9872C46.4667 67.6125 45.6637 67.0236 45.1284 66.2741Z" fill="#001230"/>
</g>
<g opacity="0.2">
<path opacity="0.2" d="M31.9058 39.6681C32.3876 38.3298 33.2441 37.0985 34.4754 36.2955C35.1178 35.8672 35.8672 35.6531 36.6167 35.5996C37.4197 35.546 38.1156 35.7602 38.8115 36.0278C40.2034 36.5632 41.3811 37.5268 42.2377 38.651C43.0942 39.7752 43.7901 41.1135 43.9507 42.5054C43.4154 41.2206 42.5589 40.0964 41.6488 39.1328C40.6852 38.1692 39.6145 37.3662 38.4368 36.9379C37.8479 36.7238 37.2055 36.5632 36.6167 36.5632C36.0278 36.5632 35.3854 36.7238 34.7966 36.9914C33.7259 37.5803 32.7088 38.5439 31.9058 39.6681Z" fill="#001230"/>
</g>
<g opacity="0.2">
<path opacity="0.2" d="M67.6124 39.6681C66.8094 38.5439 65.7923 37.5803 64.6681 36.9915C64.0792 36.7238 63.4904 36.5632 62.848 36.5632C62.2591 36.5632 61.6167 36.7238 61.0278 36.9379C59.7966 37.3662 58.7259 38.2227 57.8158 39.1328C56.9058 40.0964 56.1028 41.2206 55.5139 42.5054C55.6745 41.1135 56.3704 39.7752 57.227 38.651C58.137 37.5268 59.2612 36.5632 60.6531 36.0279C61.349 35.7602 62.0985 35.5996 62.848 35.5996C63.5974 35.6531 64.4004 35.8673 64.9893 36.2955C66.3276 37.1521 67.1842 38.3833 67.6124 39.6681Z" fill="#001230"/>
</g>
<path d="M67.4517 82.8157C59.2076 82.8157 50.0534 79.7643 49.5181 79.6037L50.5887 76.4452C55.4602 78.1047 69.3253 81.5309 74.9999 77.8906C80.5673 74.2504 81.5844 61.3489 81.4774 56.6915L84.7964 56.6379C84.7964 57.3874 85.0106 75.321 76.7665 80.6743C74.3039 82.2803 70.9313 82.8157 67.4517 82.8157Z" fill="#92E4AC"/>
<path d="M82.0129 57.441C82.0129 57.441 73.9293 52.4624 76.7666 52.623C77.8908 52.6766 81.3705 55.0856 81.3705 55.0856C81.3705 55.0856 76.2848 41.3275 77.5696 40.6851C78.8544 40.0427 82.9765 53.5866 82.9765 53.5866C82.9765 53.5866 78.8544 38.6509 80.4604 38.4903C82.0664 38.3297 84.1542 53.426 84.1542 53.426C84.1542 53.426 89.7752 40.3104 91.06 40.471C92.3448 40.6316 85.5461 54.7108 85.5461 54.7108C85.5461 54.7108 91.3812 42.7729 92.5054 43.5759C93.6296 44.3789 84.7431 58.2976 84.7431 58.2976L82.0129 57.441Z" fill="#92E4AC"/>
<path d="M54.2825 78.9614C51.6059 76.1776 52.3018 71.5203 52.3018 71.5203L50.1605 71.9485L48.0191 71.5203C48.0191 71.5203 48.608 75.5888 46.5202 78.426C41.9163 78.6402 27.1412 79.8179 21.8414 85.8672C21.7343 85.9742 21.6273 86.0813 21.5737 86.2419C22.4303 86.8843 23.2333 87.5267 24.1433 88.1156C24.1969 88.062 24.1969 88.0085 24.2504 87.955C27.1947 84.5288 34.7964 82.8693 40.9527 82.0663C38.062 84.9036 36.1348 89.0791 35.76 93.7901C40.2568 95.2355 45.0748 96.0385 50.0534 96.0385C55.032 96.0385 59.85 95.2355 64.4003 93.7365C63.7579 86.8308 59.7429 80.9956 54.2825 78.9614Z" fill="#92E4AC"/>
</svg>
