<svg fill="none" height="165" viewBox="0 0 165 165" width="165" xmlns="http://www.w3.org/2000/svg" xmlns:xlink="http://www.w3.org/1999/xlink"><linearGradient id="a" gradientUnits="userSpaceOnUse" x1="2.5" x2="162.5" y1="82.4844" y2="82.4844"><stop offset="0" stop-color="#8e2de2"/><stop offset="1" stop-color="#4a00e0"/></linearGradient><path d="m82.5 165c45.563 0 82.5-36.936 82.5-82.5 0-45.5635-36.937-82.5-82.5-82.5-45.5635 0-82.5 36.9365-82.5 82.5 0 45.564 36.9365 82.5 82.5 82.5z" fill="#13b6e2"/><path d="m82.5 162.5c44.183 0 80-35.817 80-80 0-44.1828-35.817-80-80-80-44.1828 0-80 35.8172-80 80 0 44.183 35.8172 80 80 80z" fill="url(#a)"/><path d="m131.4 111.8c5.1 3.6 12.7 5.8 18.3-5.6 4.7-11.5001 5.2-21.3001 3.6-33.3001-7.7-55.6-76.3-81.39997-118.4-43.9-6.8 6.1-12.5 13.5-16.6 21.7-24.89995 50.4001 16.9 106.9001 73.7 102.6001 37.4-5.6 47.6-31.4 32.8-32.9-7.7 1.1-15 1.4-22.6-.1-15.9999-3.3-31-11-44-20.6001-6.8-5.1-13.2-10.8-18.5-17.4-2.6-3.2-4.9-6.6-6.7-10.3-1-2-1.8-4.2-2.3-6.3-.4-1.9-.6-3.8-.4-5.7.1-.9.3-1.7.5-2.5 3-8.9 14.6-9.5 22.3-8.6 1.8.2 3.5.5 5.2.8 1.9.4 3.7.8 5.6 1.3-1.6 1.2-3 2.6-4.4 4.1-.8.9-3.7 4.4-4.4 6.5-2.2 6.8 3.8 13.3 8.2 17.5 1.7 1.6 3.5 3.1 5.3 4.6 2 1.6 4.1 3.1 6.3 4.5 2.3 1.5 4.6 2.9 7 4.2 2.2 1.2 4.5 2.4 6.9 3.5 2.1 1 4.3 1.8 6.5 2.6 5.6 1.9001 13.7 3.8001 18.3-1.2 2.8-3.1 4.5-8.3 5.3-12.3 10.1 9.5 6.8 22.6001 12.5 26.8001z" stroke="#f7797d" stroke-linecap="round" stroke-linejoin="round" stroke-width="1.5"/><path d="m101.3 95c4.2.8 7.4.3 8.8-2 2.4-3.9 3.8-8.1 4.2-12.3 1.1-10.8-3.9-21.8-13.7-27.9-3.2-2-6.6-3.3-10.1-3.9-7.3-1.3-14.8.1999-21 4.0999-3.6 2.3-6.7 5.4-9.1 9.3-5.3 8.7 24.9 29.7001 40.9 32.7001z" stroke="#f7797d" stroke-linecap="round" stroke-linejoin="round" stroke-width="1.5"/><path d="m117.6 104.6-.4-.9zm3.4 7 .4.9zm-4.4-2.1.9-.4zm-42.2-14.1001-.5.8001zm1.8 5.1001.8.5zm-5.4.7-.5.8zm-28.1-37.9001v-1zm-3.9-3h1zm3.9-3.0999v-1zm75.3 48.3c.9-.4 2.3 0 3.1 1.7l1.7-.9c-1.1-2.2-3.6-3.6-5.7-2.6zm3.2 1.7c.8 1.6.3 3.1-.6 3.5l.9 1.7c2.2-1.1 2.6-3.9 1.5-6.1zm-.6 3.5c-.9.4-2.3 0-3.1-1.7l-1.7.9c1.1 2.2 3.6 3.7 5.7 2.6zm-3.2-1.7c-.8-1.6-.3-3.1.6-3.5l-.9-1.7c-2.2 1.1-2.6 3.9-1.5 6.1zm-47.6-12.4001c.6-1 2.3-1.4 4.1-.3l1-1.7c-2.3-1.4-5.4-1.2-6.7 1zm4.1-.3999c1.7 1.0999 2.1 2.8 1.5 3.8l1.7 1c1.4-2.2.1-5.1-2.2-6.5zm1.5 3.8c-.6 1-2.3 1.4-4.1.3l-1 1.7c2.3 1.4 5.4 1.2 6.7-1zm-4.1.3c-1.7-1.1001-2.1-2.8-1.5-3.8l-1.7-1c-1.4 2.2-.1 5.1 2.2 6.5zm-28.6-37.9001c-1.8 0-2.9-1.1-2.9-2h-1.9c0 2.4 2.4 4 4.9 4zm-2.9-2.1c0-.9 1-2.0999 2.9-2.0999v-1.9001c-2.4 0-4.8 1.7-4.8 4.1zm2.9-2.0999c1.8 0 2.9 1.1 2.9 2h1.9c0-2.4-2.4-4-4.9-4zm2.9 2.0999c0 .9-1 2.1-2.9 2.1v1.9c2.4 0 4.8-1.6999 4.8-4.0999z" fill="#6dd5fa"/></svg>