<svg fill="none" height="115" viewBox="0 0 266 115" width="266" xmlns="http://www.w3.org/2000/svg"><path d="m19.6976 2.75757h-4.4871c-.6844 0-1.445.1521-2.1294.38026h6.2363z" fill="#000"/><path d="m26.7705 3.13783h25.8579v.60841h1.7492v-.98867h-27.2268z" fill="#000"/><path d="m84.7987 2.75757-.3802.38026h13.6894c.6845 0 1.369.15209 2.0531.53236.076 0 .076.07605.152.07605h.077c.912 0 1.749.22816 2.737.68447.457.22816.913.45632 1.293.76053-.304-.45632-.684-.91262-1.14-1.29288-.305-.30421-.609-.53237-.913-.76053-.685-.22816-1.293-.30423-1.977-.30423h-15.5913z" fill="#000"/><path d="m124.042 4.05032-.532.68446 1.14-1.14079c-.228.07606-.456.22817-.608.45633z" fill="#13b6e2"/><path d="m84.7988 2.75757h-7.3772l-.3802.38026h7.3771z" fill="#000"/><path d="m84.7988 2.75757h-7.3772l-.3802.38026h7.3771z" fill="#8e2de2" opacity=".1"/><path d="m86.0917 1.46475.9887-.988676h-7.3771l-.9887.988676z" fill="#13b6e2"/><path d="m86.0917 1.46475.9887-.988676h-7.3771l-.9887.988676z" fill="#8e2de2" opacity=".1"/><path d="m26.7705 3.13783.3803-.38026h-7.4532l-.3802.38026z" fill="#000"/><path d="m26.7705 3.13783.3803-.38026h-7.4532l-.3802.38026z" fill="#8e2de2" opacity=".1"/><path d="m28.3676 1.46475 1.0647-.988676h-7.4531l-.9887.988676z" fill="#13b6e2"/><path d="m28.3676 1.46475 1.0647-.988676h-7.4531l-.9887.988676z" fill="#8e2de2" opacity=".1"/><path d="m139.176 2.75757c-2.205 0-4.411.22815-6.692.68447 1.445-.22816 2.89-.30421 4.411-.30421 1.977 0 3.726.30421 5.247.76053.685.07605 1.293.1521 1.902.30421 1.293.30421 2.357.76051 3.27 1.29288-.532-.76053-1.065-1.44499-1.825-1.97735-.38-.07606-.685-.22818-1.065-.30423-1.597-.30421-3.346-.4563-5.248-.4563z" fill="#000"/><path d="m184.276 2.75757h-20.61c-.761 0-1.446.1521-2.206.38026h22.436z" fill="#000"/><path d="m191.273 3.13783h5.627v.60841h1.598v-.98867h-6.845z" fill="#000"/><path d="m238.349 2.75757h-24.869c-.761 0-1.445.1521-2.206.38026h26.619z" fill="#000"/><path d="m245.726 2.75757-.38.38026c.608.07605 1.217.22815 1.749.53236.076 0 .076.07605.152.07605.913 0 1.826.22816 2.738.68447.456.22816.913.45632 1.293.76053-.304-.45632-.684-.91262-1.141-1.29288-.304-.30421-.608-.53237-.988-.83659-.685-.22815-1.369-.3042-2.054-.3042z" fill="#000"/><path d="m191.273 3.13783.38-.38026h-7.377l-.38.38026z" fill="#000"/><path d="m191.273 3.13783.38-.38026h-7.377l-.38.38026z" fill="#8e2de2" opacity=".1"/><path d="m192.946 1.46475.988-.988676h-7.377l-.988.988676z" fill="#13b6e2"/><path d="m192.946 1.46475.988-.988676h-7.377l-.988.988676z" fill="#8e2de2" opacity=".1"/><path d="m244.966 3.13783h.38l.38-.38026h-7.377l-.38.38026z" fill="#000"/><path d="m244.966 3.13783h.38l.38-.38026h-7.377l-.38.38026z" fill="#8e2de2" opacity=".1"/><path d="m244.966 1.46475c.608 0 1.217.07605 1.825.30421l.761-.76053c-.837-.304212-1.75-.532356-2.586-.532356h-4.335l-.989.988676z" fill="#13b6e2"/><path d="m244.966 1.46475c.608 0 1.217.07605 1.825.30421l.761-.76053c-.837-.304212-1.75-.532356-2.586-.532356h-4.335l-.989.988676z" fill="#8e2de2" opacity=".1"/><g fill="#000"><path d="m52.6284 39.491c-.8365.8365-1.8252 1.521-2.89 1.9773-.3042.1521-.6084.3042-.9126.3803h.0761c.6844 0 1.445-.1521 2.1294-.5324.6845-.3802 1.369-.8366 1.9774-1.3689.6084-.5324 1.0647-1.2169 1.445-1.9013.3042-.6085.4563-1.2169.5324-1.8253-.0761.1521-.1521.3042-.2282.5324-.6084.9886-1.2929 1.9013-2.1295 2.7379z"/><path d="m7.60526 22.3032-.98868.9887c.07605.2282.07605.5324.15211.7605.30421.3803.60841.7606.98868 1.1408.38026.3043.68447.6084 1.06474.9127-.22816-.3043-.45632-.6845-.60842-.9887-.38026-.9887-.60843-1.9013-.60843-2.814z"/><path d="m6.99684 9.06984c0-.07605 0-.07606 0-.15212-.30421.76053-.45631 1.59708-.45631 2.43368v4.5632l.45631-.4563z"/><path d="m48.7498 17.3598c.0761 0 .0761.076.1521.076.9126 0 1.8253.2282 2.7379.6845.5324.2281 1.0647.5324 1.5211.9126-.3803-.5323-.7606-.9887-1.2169-1.445-.2281-.2281-.4563-.3802-.6845-.6084h-3.5744c.3042.076.6844.2282 1.0647.3803z"/><path d="m5.01941 39.5671v1.6732h33.91949l1.6732-1.6732z"/><path d="m49.3583 40.5557c.9126-.4563 1.7492-.9887 2.5097-1.7492.7605-.6845 1.369-1.5211 1.8253-2.4337s.6844-1.8253.6844-2.8139v-.4564l-2.0534 2.0534c-.076.1522-.1521.3803-.2281.5324-.3803.6845-.8366 1.369-1.445 1.9013-.6085.5324-1.2169.9887-1.9774 1.369-.1521.076-.3042.1521-.3803.1521l-2.0534 2.0534h.3042c.9127.0761 1.8253-.1521 2.814-.6084z"/><path d="m53.0087 21.0101c-.3803-.3803-.7605-.6085-1.2168-.9127.076.1521.2281.3042.3042.5324.3802.6845.5323 1.3689.5323 2.1295v4.7913l1.7493-1.7492v-2.89c-.3803-.6845-.8366-1.369-1.369-1.9013z"/><path d="m8.44179 27.0183c-.15211-.076-.22816-.1521-.38027-.3042.07606.0761.15211.1521.22816.3042z"/><path d="m56.6593 3.74624v13.23316h-3.9547c.3042.3042.6084.6084.9126.9887h4.1069v-15.21053h-2.2816v.98867z"/><path d="m52.6285 13.0246h-34.7561v3.8026h2.2816v-1.521h27.5311c-.3803-.0761-.7605-.1521-1.1408-.1521h-26.9987v-.5324h34.8321v-9.27844h-1.7492z"/><path d="m41.7529 28.1592v-2.2816h-28.824c-.6844 0-1.3689-.1521-2.0534-.5324-.3042-.1521-.5324-.3042-.7605-.4563.3042.4563.6845.9887 1.0647 1.369.5324.5323 1.1408.9126 1.8253 1.2929h26.9987v.5323h-25.7058c.3042.0761.6084.1522.9887.1522h26.4663z"/><path d="m2.73793 39.5671v-9.8869h11.33187c-.5324-.076-1.0648-.3042-1.5971-.5323-.6084-.3042-1.2169-.6845-1.7492-1.1408h-1.59714c.45632.4563.98864.9126 1.59714 1.2929h-8.44188v11.9402h1.06474v-1.6731z"/><path d="m52.02 43.75c1.0647-.5323 1.9774-1.1408 2.89-1.9773.8366-.8366 1.521-1.7493 2.0534-2.814.5324-.9887.7605-2.0534.7605-3.1181v-6.0843l-1.0647 1.0648v5.0195c0 .9126-.2281 1.9013-.6845 2.8139-.4563.9126-1.0647 1.7492-1.8252 2.4337-.7606.6845-1.5971 1.2929-2.5098 1.7492-.9126.4563-1.8252.6845-2.7379.6845h-4.8673l-.9887.9887h5.856c.9887 0 2.0534-.2282 3.1182-.7606z"/><path d="m55.2143 21.0862c.3042.3802.5324.7605.6845 1.1408.2281.4563.4563.9887.5323 1.445l.8366-.8366c-.2281-.6084-.4563-1.1408-.8366-1.7492-.7605-1.1408-1.6731-2.1295-2.7379-2.9661.1521.2282.3042.4563.4563.6845.6085.6845.9127 1.445 1.0648 2.2816z"/><path d="m3.34636 43.5216v-1.2928h-1.06474v2.2815h33.38718l.9886-.9887z"/><path d="m61.0703 13.0247v-9.88687h15.9711l.3803-.38026h-16.8077v11.94023h1.0648v-1.6731z"/><path d="m61.0703 39.567v-13.005l-.4563.4563v14.2219h1.0648v-1.6732z"/><path d="m61.0703 19.109v-2.1295h2.1295-1.521v-1.6731h-1.0648v4.2589z"/><path d="m63.3519 13.0247v1.6731h2.1295l1.6732-1.6731z"/><path d="m91.7956 15.3062h1.5972v-2.2815h-18.8611l-1.5971 1.6731h18.861z"/><path d="m103.279 6.40796c.153.1521.229.38027.305.53238.38.68447.532 1.44499.532 2.12946v11.0276c0 .6845-.152 1.445-.532 2.1295-.381.6845-.837 1.369-1.445 1.9013-.609.5324-1.217.9887-1.978 1.369-.6842.3803-1.4447.5323-2.0531.5323h-26.3903v13.5374h-8.4418v1.6732h10.115v-13.5374h24.7932c.9126 0 1.7492-.2281 2.738-.6845.228-.076.38-.2281.608-.3042l3.499-3.4984c.076-.1521.152-.3042.228-.3803.456-.9126.684-1.8252.684-2.8139v-10.9516c-.38-.68447-.76-1.29288-1.369-1.7492-.456-.38026-.836-.68448-1.293-.91264z"/><path d="m106.474 7.09251c.38.45631.684.98868.988 1.52105.457.91264.685 1.82524.685 2.81394v8.67l.989-.9887v-7.6813c0-1.0647-.229-2.05341-.761-3.11814-.532-.98869-1.217-1.97738-2.053-2.81396-.381-.38027-.761-.68447-1.217-1.06474.38.45632.684.98869.989 1.52106.152.38026.228.76052.38 1.14079z"/><path d="m75.6725 43.5217h-13.9937v-1.2928h-1.0648v2.2815h16.1992v-13.5373h20.3822l.9887-.9887h-22.5116z"/><path d="m119.631 36.2966h-.608l-4.564 5.5519h.609z"/><path d="m100.542 39.5671-1.2932 1.6732h1.4452l1.293-1.6732z"/><path d="m19.3934 74.5513v19.9258h-8.67v1.6731h10.4192v-15.6668c.1521.3042.3803.5323.5324.8366v-3.0422c-.7605-1.2168-1.5211-2.4336-2.2816-3.7265z"/><path d="m28.2917 89.9899c-1.5211-1.9774-3.1182-4.4111-4.8674-7.225v1.2168c.9126 1.369 1.8253 2.5858 2.5858 3.7266 1.5211 1.9774 2.6619 3.5745 3.4984 4.6392.9887 1.2929 1.9014 2.2056 2.6619 2.7379-.1521-.1521-.2282-.3042-.3803-.4563-.8366-1.1408-1.9774-2.6618-3.4984-4.6392z"/><path d="m36.6573 81.4721.4563-.6845-10.115-16.1232c-.5324-.8366-1.2168-1.5211-1.9774-2.1295l-.1521.1521z"/><path d="m23.4243 98.432h-14.45001v-1.2929h-1.06474v2.2816h16.50345v-11.9403c-.3042-.4563-.6845-.9126-.9887-1.445z"/><path d="m49.5863 89.9899c-1.521 1.9774-2.6618 3.5745-3.4984 4.6393-1.2929 1.6731-2.4337 2.7379-3.5745 3.1942s-2.0534.6845-2.7379.6845h-1.6731c-.3042 0-.6085 0-.9127-.0761l-.9126.9126c.6084.0761 1.1408.1521 1.7492.1521h1.6732c.7605 0 1.8252-.2281 3.1942-.6844 1.2929-.4563 2.7379-1.5971 4.1829-3.4224.6084-.8366 1.445-1.9774 2.5858-3.4984.4563-.6085.9126-1.2929 1.445-2.0534v-2.0535c-.5324.7606-1.0648 1.5211-1.5211 2.2055z"/><path d="m31.4098 95.9221c.1521.1521.2281.3042.3803.4563l.1521-.1521c-.2282-.076-.3803-.1521-.5324-.3042z"/><path d="m36.6575 76.2243.4563-.6844-7.6813-12.1685c-.6845-1.0647-1.5211-1.9773-2.4337-2.7379l-.0761.0761c.0761.1521.1521.2282.3042.3803z"/><path d="m64.4927 61.166c.2281.4563.3802.9887.3802 1.5211v.6084l.9887-.9887c-.1521-.1521-.3042-.3042-.5324-.4563-.2281-.3042-.5323-.4563-.8365-.6845z"/><path d="m64.873 94.477h-8.746v1.6732h10.4952v-27.2269l-1.7492 1.7492z"/><path d="m8.44191 94.4771v-15.3626l-.53236.6084v16.4274h1.06473v-1.6732z"/><path d="m8.44191 62.687c-.38026.7605-.53236 1.5211-.53236 2.2816v7.3771l.53236-.5324z"/><path d="m17.6443 58.048c.7605.1521 1.5211.3042 2.2055.6084h.3042c.3803.0761.7606.1521 1.1408.2282l.8366-.8366c-.6084-.1521-1.2168-.3042-1.8253-.3803h-3.3463c-.9887 0-1.9013.1521-2.7379.3803h.4563z"/><path d="m57.648 57.6677c-.6084.0761-1.2168.2282-1.8252.3803h2.8139c1.1408 0 2.2055.2281 3.1182.6845.7605.076 1.521.2281 2.2815.5323.6845.2282 1.2169.5324 1.7493.9127-.3803-.6845-.9127-1.2169-1.5211-1.7492-.076-.0761-.2281-.1521-.3042-.2282-.9887-.3042-1.9774-.5324-3.0421-.5324z"/><path d="m38.7109 78.202-.9127-1.5211-.6844 1.0647.9126 1.5211z"/><path d="m47.3808 89.5336c-1.1408 1.5211-1.9774 2.6619-2.5858 3.4984-1.445 1.8253-2.814 2.9661-4.1829 3.4224-.3803.1521-.6845.2282-.9887.3042h.1521c.5324 0 1.2169-.1521 2.1295-.5323.9126-.3803 1.9013-1.2169 2.89-2.5098 1.0647-1.3689 2.5858-3.5745 4.7153-6.4645.5323-.7605 1.0647-1.5971 1.6731-2.4336v-.3042l-.7605.7605c-1.1408 1.5971-2.1295 3.0421-3.0421 4.2589z"/><path d="m68.9037 98.4317h-14.45v-1.2929h-1.0648v2.2816h16.6556v-33.8435l-1.1408 1.0648z"/><path d="m66.6982 59.4929c.1521.1521.2282.3803.3043.5324.1521.2282.2281.5324.3802.7605l.3803-.3802c-.1521-.1521-.3042-.2282-.4563-.3803-.1521-.2282-.3803-.3803-.6085-.5324z"/><path d="m33.5392 93.9447c-.0761-.076-.2282-.1521-.3042-.2281.2281.2281.3803.4563.6084.6844l.3042-.3042c-.3042 0-.4563-.076-.6084-.1521z"/><path d="m40.2318 95.4657c1.1408-.4564 2.2816-1.5211 3.5745-3.1943.4563-.6084.9887-1.2928 1.5971-2.2055l-5.3997 5.3998c.076.076.1521.076.2281 0z"/><path d="m53.8453 94.477v-10.7995c-.5324.9126-1.1408 1.7492-1.6732 2.5097v1.9774c.3803-.6084.7605-1.1408 1.2169-1.8253v9.8108h1.0647v-1.6731z"/><path d="m88.9817 57.6677h-2.2816v.9887h1.1408v13.1571h-1.1408v.6845h1.1408v25.934h-13.9176v-1.2929h-1.0648v2.2816h14.6782l1.445-1.369z"/><path d="m73.2388 67.9347v-5.5519l-.3803.3803v6.7687h1.0648v-1.5971z"/><path d="m77.5737 58.048h6.3885v.6084h1.5971v-.9887h-7.6053z"/><path d="m73.9233 94.4771h-.6845v-22.5876h10.7234v.6084h1.5971v-.6845h-11.636v-1.5971h-1.0648v25.934h1.0648z"/><path d="m83.9622 67.9346h-8.4418v1.5971h10.0389v-9.2024h-1.5971z"/><path d="m83.9622 94.477h-8.4418v1.6731h10.0389v-21.9792h-1.5971z"/><path d="m107.158 98.4319h-11.1794l-.9887.9886h13.1571v-13.1571l-.989.9887z"/><path d="m107.158 79.875.152-.1521c-.076-.0761-.152-.076-.152-.1521z"/><path d="m92.4041 62.8394c-.3042.6844-.4563 1.3689-.4563 2.1294v30.1169l.5323-.5324h-.076z"/><path d="m127.769 58.048h1.216l.381-.3803h-1.978v1.9013l.381-.3802z"/><path d="m124.726 75.54c.229.2282.457.4563.685.6845.456.4563.913.9126 1.445 1.445.304.3042.608.6084.913.9126v-11.9403l-.381.3803v9.6587c-.304-.3042-.608-.5324-.912-.8366-.152-.1521-.305-.3042-.457-.4563v1.445c-.456-.4563-.912-.9126-1.445-1.445-.532-.5324-.988-.9887-1.445-1.445-.304-.3042-.532-.5324-.684-.6845s-.456-.3802-.685-.6084l-.076.0761c.761.6844 1.521 1.3689 2.358 2.1294.228.3042.456.4563.684.6845z"/><path d="m102.747 57.6677h-1.901c-.9127 0-1.8253.1521-2.6619.3803h.3802 1.9017c.304 0 .456 0 .532.076.456.0761.989.2282 1.597.5324h.228c.305 0 .685.0761 1.141.1521.837.1521 1.825.6084 2.89 1.2929 1.141.6845 2.434 1.7492 4.031 3.0421s3.422 2.89 5.552 4.8674c.456.3803.912.8366 1.369 1.2168l.076-.076c-1.369-1.2169-2.586-2.3576-3.727-3.4224-2.129-1.9013-3.955-3.5745-5.552-4.8674-1.521-1.2168-2.814-2.2055-3.878-2.89-.229-.076-.457-.1521-.609-.1521-.456-.1521-.912-.1521-1.369-.1521z"/><path d="m104.877 89.5337-1.75 1.7492v3.1942h-3.1938l-1.6732 1.6732h6.617z"/><path d="m109.212 77.7454.076-.076c-1.902-1.7492-3.955-3.7266-6.237-5.78v12.0163l1.75-1.7492v-6.3884c.152.1521.38.3042.532.5324v-2.0535c1.445 1.1408 2.662 2.3577 3.879 3.4984z"/></g><path d="m10.7234 28.0069h3.5744 25.7819v-.5324h-27.0748-.076c-.9126 0-1.8253-.2281-2.7379-.6845-.45632-.2281-.91264-.5323-1.36896-.8365-.38026-.3042-.76052-.5324-1.06474-.9127-.38026-.3802-.68447-.6844-.98868-1.1407-.1521-.1522-.22816-.3803-.38026-.5324l-.76053.7605c.68448.9887 1.52105 1.8253 2.43369 2.5098.1521.076.22815.2281.38026.3042h-.22815-5.4758l-.98868.9886h7.30105 1.6732z" fill="#13b6e2"/><path d="m54.3777 1.46476v1.2929.98868 1.67317 9.27839h-34.8322v.5324h26.9987c.3803 0 .7606.076 1.1408.1521.5324.076 1.0648.3042 1.5971.5324.6845.3042 1.2929.6844 1.8253 1.1408.2282.1521.4563.3802.6845.6084.4563.4563.9126.9126 1.2168 1.445.2282.3042.3803.6084.6084.9887.4564.9126.6845 1.8252.6845 2.8139v.1521 2.89l1.0648-1.0647v-1.9774c0-.5323-.0761-1.1408-.2282-1.6731-.2282-.7606-.5324-1.5211-.9887-2.2816-.1521-.2282-.3042-.4563-.4563-.6845-.0761-.076-.0761-.1521-.1521-.1521-.3042-.3803-.6084-.6845-.9126-.9887-.4564-.4563-.9887-.9126-1.5211-1.2929h4.259v-11.94025-.9887-2.281576h-26.0861l-.9887.988696h26.0861z" fill="#13b6e2"/><path d="m5.32365 9.06991c0-.91264.22816-1.90133.68448-2.81396.45631-.91264 1.06473-1.7492 1.7492-2.43368.76053-.68447 1.59711-1.29291 2.43367-1.74922.9127-.45632 1.8253-.68447 2.7379-.68447h8.0616l.9887-.988678h-9.0503c-.9887 0-2.0534.228158-3.04209.760528-1.06474.53237-1.97737 1.14079-2.81395 1.97737s-1.52105 1.7492-2.05342 2.81394c-.53237.98869-.76053 2.05343-.76053 3.11817v9.12629l1.06474-1.0647z" fill="#13b6e2"/><path d="m37.9503 42.2289.9887-.9887h-33.91952-1.67316-1.06474-1.21684v-12.4726l-1.06474 1.1408v12.3205h2.28158 1.06474z" fill="#13b6e2"/><path d="m54.3777 33.6348c0 .9127-.2282 1.9014-.6845 2.814s-1.0648 1.7492-1.8253 2.4337-1.5971 1.2929-2.5097 1.7492c-.9127.4563-1.8253.6845-2.7379.6845h-.3042l-.9887.9887h1.2929c.7605 0 1.445-.1522 2.2055-.3803.3042-.0761.6084-.2282.9126-.3803 1.0648-.5323 1.9774-1.1408 2.89-1.9774.8366-.8365 1.5211-1.7492 2.0535-2.8139.076-.1521.1521-.3042.2281-.5324.3803-.8365.5324-1.7492.5324-2.5858v-1.521l-1.0647 1.0647z" fill="#13b6e2"/><path d="m50.7271 37.6659c.6085-.5324 1.0648-1.2169 1.445-1.9013.0761-.1521.1521-.3803.2282-.5324l-4.0308 4.0308c.1521-.0761.3042-.0761.3803-.1521.6844-.4563 1.3689-.9127 1.9773-1.445z" fill="#13b6e2"/><path d="m6.99683 15.4583 12.39657-12.39653h-6.2363-.1521c-.6845 0-1.369.15209-2.0534.53235-.6845.38027-1.36898.8366-1.9774 1.36897-.60842.53236-1.06474 1.21684-1.445 1.90131-.30421.68448-.53237 1.36894-.53237 2.05341v.15212z" fill="#13b6e2"/><path d="m52.6285 22.6834c0-.6845-.1521-1.445-.5324-2.1295-.076-.1521-.2281-.3042-.3042-.5324-.3042-.4563-.6845-.9887-1.0647-1.3689-.5324-.5324-1.1408-.9127-1.8253-1.2929-.076 0-.076-.0761-.1521-.0761-.3803-.2281-.7605-.3042-1.1408-.3803-.3042-.076-.6845-.152-.9887-.152h-26.4663-2.2816v-3.8027h34.8321v-7.60525-1.67317-.60841h-25.9339l-19.16531 19.16523c.38026.6085.76052 1.2169 1.29289 1.7493.38027.3802.76053.6084 1.21682.9126.2282.1521.5324.3042.7606.4563.6844.3803 1.445.5324 2.0534.5324h28.8239v2.2816 1.521h-27.6831-11.33188v9.8869h.60842 1.67316 35.5927l12.0923-12.0924v-4.7913z" fill="#13b6e2"/><path d="m60.614 42.2289h1.0647 12.8529v-13.5374h23.6524c.5324 0 .9887-.0761 1.5211-.2282l1.7489-1.7492c-.228.0761-.38.2282-.608.3042-.9128.4563-1.8254.6845-2.738.6845h-24.7172v13.5374h-10.115-1.6731-1.0648-1.2168v-13.0811l-1.0648 1.0647v13.0051z" fill="#13b6e2"/><path d="m91.7957 15.3062v-.6084h-18.8611l-.6845.6084z" fill="#13b6e2"/><path d="m59.3971 15.3064h1.2169 1.0647 3.1942l.6085-.6085h-2.1295-1.6732-1.0647-1.2169v-13.23315h19.3174l.9887-.988676h-21.3708v21.370826l1.0647-1.0648z" fill="#13b6e2"/><path d="m98.1841 1.46464c.9126 0 1.7492.22816 2.7379.68447.532.22816 1.065.60843 1.521.91264.304.22816.684.53237.913.76053.456.38027.76.83657 1.14 1.29288.229.38027.457.76053.685 1.14079.456.91264.684 1.82527.684 2.73791v11.10374c0 .9126-.228 1.9013-.684 2.8139-.076.1521-.152.3042-.228.3803l1.673-1.6732c.152-.5324.228-.9887.228-1.521v-10.95163c0-.68447-.152-1.36896-.38-2.05343-.152-.38026-.228-.76052-.457-1.06473-.304-.53237-.608-1.06474-.988-1.52106-.304-.45631-.685-.83658-1.065-1.21685-.837-.83658-1.749-1.52105-2.814-1.97737-.989-.53237-2.0533-.760528-3.042-.760528h-11.0276l-.9887.988698h12.0924z" fill="#13b6e2"/><path d="m61.0703 3.13794v9.88686h.6084 1.6732 3.8026l9.8869-9.88686z" fill="#13b6e2"/><path d="m93.3927 15.3064v1.6731.0761h-22.8158l-9.5066 9.5066v13.081h.6084 1.6732 8.4418v-13.5373h26.3903c.6845 0 1.369-.1521 2.053-.5324.685-.3803 1.369-.8366 1.978-1.369.608-.5323 1.065-1.2168 1.445-1.9013s.532-1.445.532-2.1295v-10.95154c0-.68447-.152-1.44501-.532-2.12949-.076-.22815-.228-.38025-.304-.53235-.305-.45632-.685-.9887-1.065-1.36896-.532-.53237-1.141-.91262-1.825-1.29289-.076 0-.076-.07605-.152-.07605-.685-.38027-1.4455-.53238-2.0539-.53238h-13.6895l-9.8869 9.88686h18.7851v2.1295z" fill="#13b6e2"/><path d="m61.0703 16.9795v2.1295l2.1295-2.1295z" fill="#13b6e2"/><path d="m40.2319 95.466c-.0761 0-.1521.076-.2282.076l-1.445 1.445c.3042-.076.6845-.1521 1.0648-.2282.3042-.076.6844-.2281.9886-.3042 1.2929-.4563 2.7379-1.5971 4.1829-3.4223.6085-.8366 1.445-1.9774 2.5858-3.4985.9127-1.2168 1.9013-2.6618 2.9661-4.2589l-4.9434 4.9434c-.6085.8366-1.2169 1.5971-1.5971 2.2056-1.2929 1.5971-2.4337 2.5857-3.5745 3.0421z" fill="#13b6e2"/><path d="m67.763 97.1389v-29.2803l-1.1408 1.0648v27.2269h-10.4953-1.6732-1.0647-1.2168v-7.9856-1.9013-2.89l-1.0648 1.0647v.3803 2.9661 1.9773 7.3771h2.2816 1.0647z" fill="#13b6e2"/><path d="m66.6982 59.4928c-.4563-.6084-.9887-1.2168-1.5971-1.7492-.8366-.6844-1.8253-1.2929-2.89-1.6731-1.1408-.4564-2.2816-.6845-3.4984-.6845h-3.3463c-1.8253.2281-3.5745.8366-5.1716 1.9013-1.5971.9887-2.89 2.2816-3.8787 3.8787l-9.2024 14.45-.4563.6845-9.5826-15.1345c-.0761-.1521-.1522-.2282-.3043-.3803l-.8365.8366c0 .0761.076.0761.076.1521l10.5713 16.8077.4564-.6845.6844-1.1408 9.5066-14.9824c.9127-1.445 2.0534-2.5858 3.5745-3.4984s3.0421-1.5211 4.6392-1.7492h3.1942c1.1408 0 2.1295.2281 3.1182.6084.8366.3042 1.5971.7605 2.2055 1.2168.0761.0761.2282.1522.3042.2282.6084.5324 1.1408 1.0647 1.5211 1.7492.076.0761.1521.2282.1521.3042.2281.4563.3803.8366.4563 1.2169l.8366-.8366c-.0761-.2282-.2282-.5324-.3803-.7605.0761-.3803-.076-.6085-.1521-.7606z" fill="#13b6e2"/><path d="m32.7787 95.4658c-.1521-.0761-.3802-.2282-.6084-.3803-.7605-.5323-1.6731-1.445-2.6618-2.7379-.8366-1.1408-1.9774-2.6618-3.4984-4.6392-.8366-1.1408-1.6732-2.3576-2.5858-3.7266-.5324-.8366-1.1408-1.7492-1.7492-2.6618-.1522-.3042-.3803-.5324-.5324-.8366v15.6669h-10.4192-1.74925-1.06474-1.21684v-15.2866l-1.06474 1.0647v15.1345h2.28158 1.06474 13.15715v-12.929c.4563.6845.8365 1.2929 1.2929 1.9014.3042.4563.6844.9886.9886 1.445.5324.6844.9887 1.3689 1.445 2.0534 1.1408 1.521 2.0535 2.6618 2.7379 3.4984.9887 1.3689 1.9014 2.3576 2.814 2.966.1521.1522.3803.2282.5324.3043z" fill="#13b6e2"/><path d="m6.69267 62.6869c0-.6844.22816-1.445.60842-2.2055s.98869-1.445 1.74921-2.0534c.76053-.6084 1.5971-1.0648 2.5097-1.445.9127-.3803 1.9774-.6084 3.0421-.6084h3.2703c1.445.2281 2.89.8365 4.259 1.5971l.8365-.8366c-1.5971-.9887-3.2702-1.5971-5.0194-1.8253h-3.3464c-1.2928 0-2.4336.2282-3.4984.6845-1.0647.4563-2.0534.9887-2.88998 1.6732-.83658.6844-1.445 1.445-1.97737 2.3576-.45632.8366-.68447 1.7492-.68447 2.5858v11.9403l1.06473-1.0648v-10.7995z" fill="#13b6e2"/><path d="m53.8453 83.6776v10.7995h.6085 1.6731 8.7461v-23.8045l-11.0277 11.0276z" fill="#13b6e2"/><path d="m64.4926 61.1659c-.3042-.6084-.7605-1.1408-1.3689-1.6732-.3803-.3042-.8366-.6084-1.2929-.8365-.9127-.4563-1.9774-.6845-3.1182-.6845h-2.8139-.1521c-1.369.2281-2.7379.6845-3.9548 1.521-1.2929.7606-2.2816 1.7493-2.966 2.8901l-9.9629 15.7428-.6845 1.1408-.9127 1.5211-.4563.6845-11.9402-18.785-16.42743 16.4273v15.3627h.53237 1.74926 8.67v-19.9258c.7605 1.2929 1.521 2.5097 2.2815 3.7266 1.5211 2.4336 3.0422 4.6392 4.4111 6.6166 2.0534 2.966 3.6505 5.0955 4.7913 6.4644.9127 1.1408 1.6732 1.9013 2.3577 2.3577.076.076.2281.1521.3042.2281.1521.0761.3042.1521.5323.2282l30.8774-30.8774v-.6084c-.076-.5324-.1521-.9887-.4563-1.5211z" fill="#13b6e2"/><path d="m20.9906 59.1886c-.3803-.2281-.7605-.3802-1.1408-.5323-.7605-.3042-1.445-.5324-2.2055-.6084h-2.9661c-.1521 0-.3042 0-.4563 0-1.5971.076-2.89.6084-3.9547 1.4449-1.21688.9887-1.74926 2.0535-1.74926 3.1943v9.0502z" fill="#13b6e2"/><path d="m71.8698 56.3747.9887-.9887h-2.2816v2.2816l1.0647-1.1408v-.1521z" fill="#13b6e2"/><path d="m86.7001 97.1388v-24.6411-.6844-13.2332-.9887-2.2816h-6.4645l-.9887.9887h6.3884v1.2929.9887 1.6731 9.2785h-10.115-1.5971-1.0647-1.2169v-5.6279l-1.0647 1.0647v32.0943h2.2816 1.0647 12.7769zm-15.0585-.9887v-25.934h1.2169 1.0647 11.6361v1.5972.6844 1.6732 21.9792h-10.115-1.5971-1.0648z" fill="#13b6e2"/><path d="m83.9622 94.477v-20.306-1.6732-.6084h-10.7234v22.5876h.6844 1.5972z" fill="#13b6e2"/><path d="m73.2388 67.9347h.6844 1.5972 8.4418v-7.6053-1.6731-.6084h-6.3884l-4.335 4.335z" fill="#13b6e2"/><path d="m104.877 96.1502h-6.6168l-.9887.9887h8.5935v-8.594l-.988.9887z" fill="#13b6e2"/><path d="m105.409 76.2245c-.152-.1521-.38-.3042-.532-.5324v6.3885l.988-.9887v-2.814c.457.4563.837.8366 1.293 1.2169.076.076.152.076.152.1521l.837-.8366c-.837-.8366-1.749-1.6732-2.738-2.5858z" fill="#13b6e2"/><path d="m90.6548 96.1501v-33.4632c0-.6844.2282-1.445.6084-2.2055.3803-.7605.9887-1.445 1.6732-2.0534s1.5211-1.0648 2.5097-1.445c.9127-.3803 1.9774-.6084 3.0422-.6084h1.9017c.304 0 .684.076 1.14.1521.837.1521 1.826.6084 2.89 1.2929.076 0 .076.076.152.076 1.065.6845 2.358 1.6732 3.879 2.89 1.597 1.2929 3.423 2.89 5.552 4.8674 1.141 1.0647 2.358 2.1295 3.727 3.4224l.76-.7606c-1.901-1.7492-3.574-3.2702-5.095-4.6392-1.902-1.7492-3.575-3.1942-5.02-4.335s-2.738-2.0534-3.803-2.6618c-1.064-.6084-2.053-1.0648-2.89-1.2169-.456-.076-.912-.1521-1.292-.1521h-1.9017c-1.2169 0-2.3577.2282-3.4224.6845-1.0648.4563-2.0534.9887-2.814 1.6732-.8365.6844-1.445 1.445-1.9013 2.3576-.4563.8366-.6845 1.7492-.6845 2.5858v34.4519h.1522l.9886-.9887h-.1521z" fill="#13b6e2"/><path d="m123.129 73.9427c.457.4563.913.9127 1.445 1.445.533.5324.989.9887 1.445 1.445v-1.445-6.9968l-.912.9126v5.0955c-.305-.3042-.609-.5323-.913-.8366-.304-.3042-.532-.5323-.837-.8365-.456-.4563-.76-.7605-.912-.8366l-.761.7605c.305.2282.533.4563.685.6084.228.2282.456.4563.76.6845z" fill="#13b6e2"/><path d="m127.769 58.0479v1.1407l1.216-1.1407z" fill="#13b6e2"/><path d="m103.127 94.4772v-3.1942l-3.1938 3.1942z" fill="#13b6e2"/><path d="m112.482 66.4136c-2.053-1.8252-3.803-3.3463-5.248-4.5631-1.445-1.2169-2.738-2.0534-3.726-2.6619-.381-.2281-.685-.3802-.989-.5323-.608-.3042-1.141-.4563-1.597-.5324-.076-.076-.228-.076-.532-.076h-1.9017c-.1521 0-.3042 0-.3803 0-.6845 0-1.3689.1521-1.9774.3802-.7605.3042-1.3689.6084-1.9773 1.0647-.5324.4564-.9887.9127-1.2929 1.5211-.3042.5324-.5324 1.1408-.5324 1.6732v.1521 31.6379h.0761l10.6469-10.6474v-12.0163c2.206 2.0534 4.335 4.0308 6.237 5.78l7.377-7.3771c-1.521-1.369-2.89-2.6619-4.183-3.8027z" fill="#13b6e2"/><path d="m90.8829 96.1502h1.0648v-1.0648z" fill="#8e2de2" opacity=".1"/><path d="m88.9816 98.0515-1.445 1.369h1.445z" fill="#000"/><path d="m107.31 79.6467-.152.1521v7.3772l.989-.9887v-5.704c.989.9887 1.977 1.9013 2.89 2.7379l.076-.076c-1.217-.9887-2.434-2.2056-3.803-3.4985z" fill="#000"/><path d="m107.31 79.6467-.152.1521v7.3772l.989-.9887v-5.704c.989.9887 1.977 1.9013 2.89 2.7379l.076-.076c-1.217-.9887-2.434-2.2056-3.803-3.4985z" fill="#8e2de2" opacity=".1"/><path d="m92.9364 98.4318v-1.2929h-.9886v2.2816h3.0421l.9886-.9887z" fill="#000"/><path d="m92.9364 98.4318v-1.2929h-.9886v2.2816h3.0421l.9886-.9887z" fill="#8e2de2" opacity=".1"/><path d="m92.4801 94.4771-.5323.6084v1.0647h.9886v-1.6731z" fill="#000"/><path d="m92.4801 94.4771-.5323.6084v1.0647h.9886v-1.6731z" fill="#8e2de2" opacity=".1"/><path d="m127.769 66.6419v-7.4532l-.381.3803v7.3771z" fill="#000"/><path d="m127.769 66.6419v-7.4532l-.381.3803v7.3771z" fill="#8e2de2" opacity=".1"/><path d="m121.608 72.802.076-.076c-1.369-1.2169-2.661-2.4337-3.878-3.4985l-.076.0761c1.216.9887 2.509 2.2055 3.878 3.4984z" fill="#000"/><path d="m121.608 72.802.076-.076c-1.369-1.2169-2.661-2.4337-3.878-3.4985l-.076.0761c1.216.9887 2.509 2.2055 3.878 3.4984z" fill="#8e2de2" opacity=".1"/><path d="m94.6857 94.4771v1.6731h3.5744l1.6732-1.6731z" fill="#000"/><path d="m94.6857 94.4771v1.6731h3.5744l1.6732-1.6731z" fill="#8e2de2" opacity=".1"/><path d="m103.127 91.2828 1.75-1.7492v-7.3771l-1.75 1.7492z" fill="#000"/><path d="m103.127 91.2828 1.75-1.7492v-7.3771l-1.75 1.7492z" fill="#8e2de2" opacity=".1"/><path d="m109.212 77.7455c1.369 1.2929 2.662 2.4337 3.802 3.5745l.076-.0761c-1.216-1.1408-2.509-2.2816-3.802-3.5745z" fill="#000"/><path d="m109.212 77.7455c1.369 1.2929 2.662 2.4337 3.802 3.5745l.076-.0761c-1.216-1.1408-2.509-2.2816-3.802-3.5745z" fill="#8e2de2" opacity=".1"/><path d="m126.019 68.3151v-7.3771l-.912.9126v7.3771z" fill="#13b6e2"/><path d="m126.019 68.3151v-7.3771l-.912.9126v7.3771z" fill="#8e2de2" opacity=".1"/><path d="m105.865 88.5448v-7.3771l-.988.9887v7.3771z" fill="#13b6e2"/><path d="m105.865 88.5448v-7.3771l-.988.9887v7.3771z" fill="#8e2de2" opacity=".1"/><path d="m108.223 78.8103-.837.8366c1.369 1.2929 2.586 2.4337 3.803 3.5745l.913-.9127c-1.293-1.0647-2.586-2.2055-3.879-3.4984z" fill="#13b6e2"/><path d="m108.223 78.8103-.837.8366c1.369 1.2929 2.586 2.4337 3.803 3.5745l.913-.9127c-1.293-1.0647-2.586-2.2055-3.879-3.4984z" fill="#8e2de2" opacity=".1"/><path d="m98.2601 96.1501h-3.5745-1.7492-.9887-1.0647l-1.0648.9887h2.1295.9887 4.335z" fill="#13b6e2"/><path d="m98.2601 96.1501h-3.5745-1.7492-.9887-1.0647l-1.0648.9887h2.1295.9887 4.335z" fill="#8e2de2" opacity=".1"/><path d="m121.76 72.6498.761-.7605c-.456-.3803-.837-.7605-1.217-1.0647s-.76-.6845-1.141-.9887c-.532-.4564-1.064-.9887-1.521-1.445l-.76.7605c1.217 1.0647 2.433 2.2055 3.878 3.4984z" fill="#13b6e2"/><path d="m121.76 72.6498.761-.7605c-.456-.3803-.837-.7605-1.217-1.0647s-.76-.6845-1.141-.9887c-.532-.4564-1.064-.9887-1.521-1.445l-.76.7605c1.217 1.0647 2.433 2.2055 3.878 3.4984z" fill="#8e2de2" opacity=".1"/><path d="m92.9364 94.4771h1.7492 5.2477l3.1937-3.1942v-7.3771l-10.6469 10.5713z" fill="#13b6e2"/><path d="m92.9364 94.4771h1.7492 5.2477l3.1937-3.1942v-7.3771l-10.6469 10.5713z" fill="#8e2de2" opacity=".1"/><path d="m119.707 73.0301c-1.065-.9886-2.053-1.9013-3.042-2.7379l-7.377 7.3772c1.369 1.2929 2.662 2.4336 3.802 3.5744l7.377-7.3771c-.152-.3042-.456-.5324-.76-.8366z" fill="#13b6e2"/><path d="m119.707 73.0301c-1.065-.9886-2.053-1.9013-3.042-2.7379l-7.377 7.3772c1.369 1.2929 2.662 2.4336 3.802 3.5744l7.377-7.3771c-.152-.3042-.456-.5324-.76-.8366z" fill="#8e2de2" opacity=".1"/><path d="m106.474 22.379c0 .6845-.152 1.445-.533 2.1295-.38.6844-.836 1.3689-1.445 1.9013-.608.5324-1.217.9887-1.977 1.369-.685.3802-1.445.5323-2.053.5323h-.153c-.228.0761-.3798.1521-.608.1521l-1.445 1.445h2.282c.912 0 1.749-.2281 2.737-.6844.913-.4564 1.75-.9887 2.51-1.7493.761-.6844 1.369-1.521 1.749-2.4336.457-.9127.685-1.8253.685-2.814v-2.2816l-1.445 1.445c-.076.2282-.076.4563-.152.6084v.3803z" fill="#8e2de2" opacity=".1"/><path d="m108.984 23.4439 14.526-18.78496-14.374 14.44996v3.2703c0 .3042-.076.6845-.152 1.0647z" fill="#8e2de2" opacity=".1"/><path d="m66.6221 63.2195v-.5323c0-.3042-.0761-.6845-.1521-.9887l-.6084.6084c.3802.3042.6084.6084.7605.9126z" fill="#8e2de2" opacity=".1"/><path d="m103.356 25.2692c.608-.6084 1.14-1.2929 1.597-2.0534l-3.499 3.4984c.685-.3802 1.293-.8365 1.902-1.445z" fill="#000"/><path d="m103.356 25.2692c.608-.6084 1.14-1.2929 1.597-2.0534l-3.499 3.4984c.685-.3802 1.293-.8365 1.902-1.445z" fill="#8e2de2" opacity=".1"/><path d="m108.071 22.379c0 .9127-.228 1.9014-.685 2.814-.456.9126-1.064 1.7492-1.749 2.4337-.76.6844-1.597 1.2929-2.51 1.7492-.912.4563-1.825.6845-2.737.6845h-2.282l-.9887.9886h3.2707c.988 0 1.977-.2281 3.042-.7605.152-.076.304-.1521.38-.2281l5.095-6.5406c.076-.3802.076-.7605.076-1.0647v-3.2703l-.988.9887v2.2055z" fill="#000"/><path d="m108.071 22.379c0 .9127-.228 1.9014-.685 2.814-.456.9126-1.064 1.7492-1.749 2.4337-.76.6844-1.597 1.2929-2.51 1.7492-.912.4563-1.825.6845-2.737.6845h-2.282l-.9887.9886h3.2707c.988 0 1.977-.2281 3.042-.7605.152-.076.304-.1521.38-.2281l5.095-6.5406c.076-.3802.076-.7605.076-1.0647v-3.2703l-.988.9887v2.2055z" fill="#8e2de2" opacity=".1"/><path d="m102.519 27.7789c.684-.3803 1.369-.8366 1.977-1.369.609-.5323 1.065-1.2168 1.445-1.9013.381-.6844.533-1.445.533-2.1294v-.1521c-.152.3042-.228.6844-.381.9886-.532.9887-1.216 1.9774-2.053 2.814s-1.749 1.521-2.814 1.9774c-.304.1521-.608.3042-.913.3802h.153c.684-.076 1.369-.2281 2.053-.6084z" fill="#000"/><path d="m102.519 27.7789c.684-.3803 1.369-.8366 1.977-1.369.609-.5323 1.065-1.2168 1.445-1.9013.381-.6844.533-1.445.533-2.1294v-.1521c-.152.3042-.228.6844-.381.9886-.532.9887-1.216 1.9774-2.053 2.814s-1.749 1.521-2.814 1.9774c-.304.1521-.608.3042-.913.3802h.153c.684-.076 1.369-.2281 2.053-.6084z" fill="#8e2de2" opacity=".1"/><path d="m35.1364 97.7474c-.3803-.1521-.7606-.4563-1.2169-.8366-.6084-.1521-1.1408-.3042-1.6731-.5324-.0761-.076-.2282-.076-.3043-.1521l-.1521.1521c.9887 1.1408 1.9014 1.9774 2.7379 2.2816.6085.2281 1.1408.4563 1.8253.5324l.9126-.9127c-.7605 0-1.445-.2281-2.1294-.5323z" fill="#000"/><path d="m35.1364 97.7474c-.3803-.1521-.7606-.4563-1.2169-.8366-.6084-.1521-1.1408-.3042-1.6731-.5324-.0761-.076-.2282-.076-.3043-.1521l-.1521.1521c.9887 1.1408 1.9014 1.9774 2.7379 2.2816.6085.2281 1.1408.4563 1.8253.5324l.9126-.9127c-.7605 0-1.445-.2281-2.1294-.5323z" fill="#8e2de2" opacity=".1"/><path d="m65.9377 62.3066-.9887.9887v7.3771l1.7492-1.7492v-5.78c-.2282-.2281-.4563-.5323-.7605-.8366z" fill="#000"/><path d="m65.9377 62.3066-.9887.9887v7.3771l1.7492-1.7492v-5.78c-.2282-.2281-.4563-.5323-.7605-.8366z" fill="#8e2de2" opacity=".1"/><path d="m50.3468 85.1987.7605-.7606v-.3802c-.2281.4563-.4563.7605-.7605 1.1408z" fill="#000"/><path d="m50.3468 85.1987.7605-.7606v-.3802c-.2281.4563-.4563.7605-.7605 1.1408z" fill="#8e2de2" opacity=".1"/><path d="m69.284 62.3068c-.3803-.6844-.9126-1.3689-1.521-1.9013l-.3803.3803c.076.3042.2281.6084.2281.8366.2282.3042.4564.6844.6845.9886.3803.7606.6084 1.5211.6084 2.2056v1.6731l1.0648-1.0647v-.4563c.076-.9127-.2282-1.7492-.6845-2.6619z" fill="#000"/><path d="m69.284 62.3068c-.3803-.6844-.9126-1.3689-1.521-1.9013l-.3803.3803c.076.3042.2281.6084.2281.8366.2282.3042.4564.6844.6845.9886.3803.7606.6084 1.5211.6084 2.2056v1.6731l1.0648-1.0647v-.4563c.076-.9127-.2282-1.7492-.6845-2.6619z" fill="#8e2de2" opacity=".1"/><path d="m47.1526 84.9705c-2.0534 2.966-3.6505 5.0955-4.7152 6.4645-.9887 1.2929-1.9774 2.2055-2.8901 2.5097-.9126.3803-1.5971.5324-2.1294.5324h-1.6732c-.6084 0-1.2168-.0761-1.8253-.3042l-.3042.3042c.6845.8365 1.369 1.3689 1.9014 1.6731h.2281 1.6732c.6844 0 1.521-.2281 2.5097-.6084l5.3998-5.3997c.5323-.7606 1.1407-1.5211 1.8252-2.5098 1.5211-1.9773 3.1182-4.411 4.8674-7.225v2.7379c.5324-.8366 1.0647-1.6731 1.6732-2.5858v-6.0081c-2.2056 3.9547-4.4111 7.4531-6.5406 10.4192z" fill="#000"/><path d="m47.1526 84.9705c-2.0534 2.966-3.6505 5.0955-4.7152 6.4645-.9887 1.2929-1.9774 2.2055-2.8901 2.5097-.9126.3803-1.5971.5324-2.1294.5324h-1.6732c-.6084 0-1.2168-.0761-1.8253-.3042l-.3042.3042c.6845.8365 1.369 1.3689 1.9014 1.6731h.2281 1.6732c.6844 0 1.521-.2281 2.5097-.6084l5.3998-5.3997c.5323-.7606 1.1407-1.5211 1.8252-2.5098 1.5211-1.9773 3.1182-4.411 4.8674-7.225v2.7379c.5324-.8366 1.0647-1.6731 1.6732-2.5858v-6.0081c-2.2056 3.9547-4.4111 7.4531-6.5406 10.4192z" fill="#8e2de2" opacity=".1"/><path d="m73.2388 58.048h4.335l.3802-.3803h-5.0955v5.0956l.3803-.3803z" fill="#000"/><path d="m73.2388 58.048h4.335l.3802-.3803h-5.0955v5.0956l.3803-.3803z" fill="#8e2de2" opacity=".1"/><path d="m101.454 26.7141-1.7489 1.7492c.2281-.0761.3799-.0761.6079-.1521.305-.0761.609-.2282.913-.3803.989-.5324 1.978-1.1408 2.814-1.9773.837-.8366 1.521-1.7493 2.054-2.814.152-.3042.304-.6845.38-.9887.076-.2281.152-.4563.152-.6084l-1.673 1.6731c-.381.7606-.913 1.445-1.597 2.0535-.609.6084-1.217 1.0647-1.902 1.445z" fill="#13b6e2"/><path d="m101.454 26.7141-1.7489 1.7492c.2281-.0761.3799-.0761.6079-.1521.305-.0761.609-.2282.913-.3803.989-.5324 1.978-1.1408 2.814-1.9773.837-.8366 1.521-1.7493 2.054-2.814.152-.3042.304-.6845.38-.9887.076-.2281.152-.4563.152-.6084l-1.673 1.6731c-.381.7606-.913 1.445-1.597 2.0535-.609.6084-1.217 1.0647-1.902 1.445z" fill="#8e2de2" opacity=".1"/><path d="m37.494 97.1389c.3042 0 .6845-.0761 1.0647-.1521l1.445-1.445c-.9887.3802-1.9013.6084-2.5097.6084h-1.6732c-.076 0-.1521 0-.2281 0-.9887 0-1.9013-.2282-2.814-.6845 0 0-.076 0-.076-.0761l-.8366.8366c.1521.0761.2281.1521.3042.1521.5324.2282 1.0647.3803 1.6732.5324.6084.1521 1.2168.1521 1.9013.1521h1.7492z" fill="#13b6e2"/><path d="m37.494 97.1389c.3042 0 .6845-.0761 1.0647-.1521l1.445-1.445c-.9887.3802-1.9013.6084-2.5097.6084h-1.6732c-.076 0-.1521 0-.2281 0-.9887 0-1.9013-.2282-2.814-.6845 0 0-.076 0-.076-.0761l-.8366.8366c.1521.0761.2281.1521.3042.1521.5324.2282 1.0647.3803 1.6732.5324.6084.1521 1.2168.1521 1.9013.1521h1.7492z" fill="#8e2de2" opacity=".1"/><path d="m52.1721 80.4834c-1.7492 2.8139-3.4223 5.2476-4.8673 7.225-.6845.9126-1.2929 1.7492-1.8253 2.5098l4.9434-4.9435c.2282-.3802.4563-.7605.7605-1.1408v.3803l1.0648-1.0648v-.2281-2.7379z" fill="#13b6e2"/><path d="m52.1721 80.4834c-1.7492 2.8139-3.4223 5.2476-4.8673 7.225-.6845.9126-1.2929 1.7492-1.8253 2.5098l4.9434-4.9435c.2282-.3802.4563-.7605.7605-1.1408v.3803l1.0648-1.0648v-.2281-2.7379z" fill="#8e2de2" opacity=".1"/><path d="m66.6222 62.6871v.5324 5.7799l1.0647-1.0647v-5.2476c0-.3042-.076-.6845-.076-.9887-.0761-.3042-.1521-.6084-.2282-.8366l-.8366.8366c.0761.3042.0761.6084.0761.9887z" fill="#13b6e2"/><path d="m66.6222 62.6871v.5324 5.7799l1.0647-1.0647v-5.2476c0-.3042-.076-.6845-.076-.9887-.0761-.3042-.1521-.6084-.2282-.8366l-.8366.8366c.0761.3042.0761.6084.0761.9887z" fill="#8e2de2" opacity=".1"/><path d="m35.8209 94.477h1.6731c.5324 0 1.2169-.1521 2.1295-.5323.9126-.3803 1.9013-1.2169 2.89-2.5098 1.0647-1.3689 2.5858-3.5745 4.7153-6.4645 2.0534-2.966 4.335-6.3884 6.6926-10.4192v6.0082 1.1408l11.0276-11.0277v-7.3771l-30.8773 30.8774c.5323.2282 1.1407.3042 1.7492.3042z" fill="#13b6e2"/><path d="m35.8209 94.477h1.6731c.5324 0 1.2169-.1521 2.1295-.5323.9126-.3803 1.9013-1.2169 2.89-2.5098 1.0647-1.3689 2.5858-3.5745 4.7153-6.4645 2.0534-2.966 4.335-6.3884 6.6926-10.4192v6.0082 1.1408l11.0276-11.0277v-7.3771l-30.8773 30.8774c.5323.2282 1.1407.3042 1.7492.3042z" fill="#8e2de2" opacity=".1"/><path d="m71.8698 56.3747h7.3771l.9886-.9887h-7.3771z" fill="#13b6e2"/><path d="m71.8698 56.3747h7.3771l.9886-.9887h-7.3771z" fill="#8e2de2" opacity=".1"/><path d="m71.6416 56.5269-1.0647 1.1407v7.3772l1.0647-1.0648z" fill="#13b6e2"/><path d="m71.6416 56.5269-1.0647 1.1407v7.3772l1.0647-1.0648z" fill="#8e2de2" opacity=".1"/><path d="m73.2388 62.3829 4.335-4.335h-4.335z" fill="#13b6e2"/><path d="m73.2388 62.3829 4.335-4.335h-4.335z" fill="#8e2de2" opacity=".1"/><path d="m22.5116 58.1238c-.076 0-.076 0 0 0-.076-.0761-.2281-.1521-.3042-.1521l-.0761.076c.0761.0761.2282.0761.3803.0761z" fill="#8e2de2" opacity=".1"/><path d="m52.6285 33.6349c0 .5324-.076 1.0648-.3042 1.5971l2.0535-2.0534v-7.3771l-1.7493 1.7492z" fill="#000"/><path d="m52.6285 33.6349c0 .5324-.076 1.0648-.3042 1.5971l2.0535-2.0534v-7.3771l-1.7493 1.7492z" fill="#8e2de2" opacity=".1"/><path d="m48.3695 39.1868c-.6084.2281-1.1408.3802-1.7492.3802h-6.0082l-1.6731 1.6732h7.3771z" fill="#000"/><path d="m48.3695 39.1868c-.6084.2281-1.1408.3802-1.7492.3802h-6.0082l-1.6731 1.6732h7.3771z" fill="#8e2de2" opacity=".1"/><path d="m56.6593 24.9648v5.8561l1.0647-1.0648v-4.7913c0-.7605-.1521-1.521-.3802-2.2055l-.8366.8366c.1521.5323.1521.9886.1521 1.3689z" fill="#000"/><path d="m56.6593 24.9648v5.8561l1.0647-1.0648v-4.7913c0-.7605-.1521-1.521-.3802-2.2055l-.8366.8366c.1521.5323.1521.9886.1521 1.3689z" fill="#8e2de2" opacity=".1"/><path d="m44.0345 43.5217h-7.3771l-.9887.9887h7.3771z" fill="#000"/><path d="m44.0345 43.5217h-7.3771l-.9887.9887h7.3771z" fill="#8e2de2" opacity=".1"/><path d="m61.0703 19.1089-.4563.4563v7.4532l.4563-.4564z" fill="#000"/><path d="m61.0703 19.1089-.4563.4563v7.4532l.4563-.4564z" fill="#8e2de2" opacity=".1"/><path d="m74.5316 13.0247h-7.3771l-1.6732 1.6731h7.4532z" fill="#000"/><path d="m74.5316 13.0247h-7.3771l-1.6732 1.6731h7.4532z" fill="#8e2de2" opacity=".1"/><path d="m24.8693 62.687.1521-.1521c-.1521-.076-.3042-.2281-.4563-.3042.076.0761.076.1521.1521.1521z" fill="#000"/><path d="m24.8693 62.687.1521-.1521c-.1521-.076-.3042-.2281-.4563-.3042.076.0761.076.1521.1521.1521z" fill="#8e2de2" opacity=".1"/><path d="m26.5424 60.2534c.076.1521.2281.3042.3042.4563l.076-.076c-.1521-.1521-.2281-.2282-.3802-.3803z" fill="#000"/><path d="m26.5424 60.2534c.076.1521.2281.3042.3042.4563l.076-.076c-.1521-.1521-.2281-.2282-.3802-.3803z" fill="#8e2de2" opacity=".1"/><path d="m7.90955 72.2697v7.4531l.53236-.6084v-7.3771z" fill="#000"/><path d="m7.90955 72.2697v7.4531l.53236-.6084v-7.3771z" fill="#8e2de2" opacity=".1"/><path d="m21.2948 58.8844c1.1408.3042 2.3576.8366 3.4984 1.5211.3042.2281.6084.3802.9127.6084-.8366-1.1408-1.9014-2.1295-3.1943-2.89-.1521-.076-.2281-.076-.3802-.076z" fill="#000"/><path d="m21.2948 58.8844c1.1408.3042 2.3576.8366 3.4984 1.5211.3042.2281.6084.3802.9127.6084-.8366-1.1408-1.9014-2.1295-3.1943-2.89-.1521-.076-.2281-.076-.3802-.076z" fill="#8e2de2" opacity=".1"/><path d="m55.4424 32.1138v-7.4532l-1.0647 1.1408v7.3772z" fill="#13b6e2"/><path d="m55.4424 32.1138v-7.4532l-1.0647 1.1408v7.3772z" fill="#8e2de2" opacity=".1"/><path d="m46.3161 41.2402h-7.3771l-.9887.9887h7.3771z" fill="#13b6e2"/><path d="m46.3161 41.2402h-7.3771l-.9887.9887h7.3771z" fill="#8e2de2" opacity=".1"/><path d="m52.6285 33.635v-6.0842l-12.0924 12.0924h6.0082c.6084 0 1.1408-.1521 1.7492-.3803l4.0308-4.0308c.2282-.5324.3042-1.0647.3042-1.5971z" fill="#13b6e2"/><path d="m52.6285 33.635v-6.0842l-12.0924 12.0924h6.0082c.6084 0 1.1408-.1521 1.7492-.3803l4.0308-4.0308c.2282-.5324.3042-1.0647.3042-1.5971z" fill="#8e2de2" opacity=".1"/><path d="m72.9346 14.6978h-7.4531l-.6085.6084h7.3772z" fill="#13b6e2"/><path d="m72.9346 14.6978h-7.4531l-.6085.6084h7.3772z" fill="#8e2de2" opacity=".1"/><path d="m59.3971 28.1591v-7.3771l-1.0647 1.0647v7.4532z" fill="#13b6e2"/><path d="m59.3971 28.1591v-7.3771l-1.0647 1.0647v7.4532z" fill="#8e2de2" opacity=".1"/><path d="m70.5769 16.9795h-7.3771l-2.1295 2.1295v7.4531z" fill="#13b6e2"/><path d="m70.5769 16.9795h-7.3771l-2.1295 2.1295v7.4531z" fill="#8e2de2" opacity=".1"/><path d="m77.0414 3.13794-9.8869 9.88686h7.3772l9.8868-9.88686z" fill="#13b6e2"/><path d="m77.0414 3.13794-9.8869 9.88686h7.3772l9.8868-9.88686z" fill="#8e2de2" opacity=".1"/><path d="m22.4356 58.1238c1.2929.7605 2.3576 1.7492 3.1942 2.89.1521.1521.2281.3042.3802.4563l.8366-.8366c-.076-.1521-.2281-.3041-.3042-.4563-.9126-1.2168-2.0534-2.2055-3.4224-3.0421-.076 0-.076-.076-.1521-.076l-.8366.8366c.1522.1521.2282.1521.3043.2281z" fill="#13b6e2"/><path d="m22.4356 58.1238c1.2929.7605 2.3576 1.7492 3.1942 2.89.1521.1521.2281.3042.3802.4563l.8366-.8366c-.076-.1521-.2281-.3041-.3042-.4563-.9126-1.2168-2.0534-2.2055-3.4224-3.0421-.076 0-.076-.076-.1521-.076l-.8366.8366c.1522.1521.2282.1521.3043.2281z" fill="#8e2de2" opacity=".1"/><path d="m6.69267 73.4866-1.06474 1.0647v7.4532l1.06474-1.1408z" fill="#13b6e2"/><path d="m6.69267 73.4866-1.06474 1.0647v7.4532l1.06474-1.1408z" fill="#8e2de2" opacity=".1"/><path d="m24.7171 62.3828c-.0761-.076-.0761-.1521-.1522-.1521-.7605-1.0647-1.7492-1.9774-2.966-2.7379-.2282-.1521-.4563-.2281-.6084-.3803l-12.54873 12.5487v7.3772l16.42743-16.4274z" fill="#13b6e2"/><path d="m24.7171 62.3828c-.0761-.076-.0761-.1521-.1522-.1521-.7605-1.0647-1.7492-1.9774-2.966-2.7379-.2282-.1521-.4563-.2281-.6084-.3803l-12.54873 12.5487v7.3772l16.42743-16.4274z" fill="#8e2de2" opacity=".1"/><path d="m7.60527 22.2269c0-.076-.07606-.1521-.07606-.1521-.38026-.6844-.53237-1.3689-.53237-2.1294v-4.4871l-.45631.4563v6.3123c0 .3042 0 .6845.07605.9887z" fill="#000"/><path d="m7.60527 22.2269c0-.076-.07606-.1521-.07606-.1521-.38026-.6844-.53237-1.3689-.53237-2.1294v-4.4871l-.45631.4563v6.3123c0 .3042 0 .6845.07605.9887z" fill="#8e2de2" opacity=".1"/><path d="m1.06474 28.007h.76053l.98868-.9887h-2.81395v2.89l1.06474-1.1408z" fill="#13b6e2"/><path d="m1.06474 28.007h.76053l.98868-.9887h-2.81395v2.89l1.06474-1.1408z" fill="#8e2de2" opacity=".1"/><path d="m5.3997 23.9763c.07605.0761.15211.1521.22816.3042l.76053-.7605c-.15211-.2281-.30421-.4563-.38026-.7605-.45632-.9126-.68448-1.8253-.68448-2.814v-2.8139l-1.06474 1.0647v1.7492c0 1.445.38026 2.7379 1.14079 4.0308z" fill="#13b6e2"/><path d="m5.3997 23.9763c.07605.0761.15211.1521.22816.3042l.76053-.7605c-.15211-.2281-.30421-.4563-.38026-.7605-.45632-.9126-.68448-1.8253-.68448-2.814v-2.8139l-1.06474 1.0647v1.7492c0 1.445.38026 2.7379 1.14079 4.0308z" fill="#8e2de2" opacity=".1"/><path d="m6.99683 15.4583v4.4872c0 .6844.15211 1.445.53237 2.1294 0 .0761.07605.0761.07605.1521l19.16525-19.16523h-7.3771z" fill="#13b6e2"/><path d="m6.99683 15.4583v4.4872c0 .6844.15211 1.445.53237 2.1294 0 .0761.07605.0761.07605.1521l19.16525-19.16523h-7.3771z" fill="#8e2de2" opacity=".1"/><path d="m135.754 18.8806-.684.6845-.533.6084v1.8253l1.217-1.3689v3.7265h-3.27l1.141-1.2929h-1.521l-1.369 1.6732h5.551v-6.3124c-.076 0-.076.0761-.152.0761-.152.1521-.228.2281-.38.3802z" fill="#000"/><path d="m133.473 18.3484-3.195 3.7266h.609l2.586-3.1182z" fill="#000"/><path d="m116.437 44.5104 4.867-5.9321h12.168v-1.1408h-12.624l-4.944 6.0842h-16.9595l.9887-1.2929h-1.445l-1.7492 2.2816z" fill="#000"/><path d="m133.473 22.075v-.6084l-.533.6084z" fill="#000"/><path d="m149.367 7.54894c.305.45631.609.91262.837 1.36894.608 1.29292.837 2.89002.837 4.79132v22.2074 7.3771.1521h-.152-7.378-6.616v-1.2929h-1.141v2.2816h6.693 7.377 2.281v-2.2816-7.3771-21.1426c0-2.1295-.304-3.87873-.988-5.24768-.609-1.445-1.521-2.50973-2.662-3.34631-.152-.07606-.228-.15212-.38-.22817.304.38026.532.83658.76 1.2929s.38.91263.532 1.445z" fill="#000"/><path d="m136.286 39.567v-2.1295h-1.749v1.1408h1.217v2.6618h1.065v-1.6731z" fill="#000"/><path d="m134.765 14.0894c-.532 0-.988.2281-1.521.6844-.532.4563-.988.9127-1.445 1.2929l-.152.1521-7.149 8.4419h4.183l1.369-1.6732h-2.129l4.867-5.78.685-.6845c.076-.076.228-.2281.38-.3802s.38-.2282.684-.3803v1.9774c.304-.3042.609-.5324.913-.8366.304-.2282.532-.3803.836-.5324v-1.2168c0-.3042-.152-.5324-.456-.8366-.304-.076-.684-.2281-1.065-.2281z" fill="#000"/><path d="m148.759 11.4275c0-.4563 0-.9886-.076-1.44496-.456-1.21685-1.217-2.20554-2.205-2.81396-.152-.07605-.305-.1521-.381-.22815.609 1.14079.989 2.66184.989 4.48707v28.1395h-8.442v1.6732h7.149l3.042-3.0421v-26.7706z" fill="#000"/><path d="m136.286 33.4829h-18.556l-4.944 6.0842h-8.746l-1.293 1.6732h10.876l4.943-6.0842h15.971v.6084h1.749z" fill="#000"/><path d="m163.665 43.5218c-.912 0-1.825-.2281-2.737-.6844-.533-.2282-.989-.5324-1.445-.9126-.381-.1521-.761-.2282-1.217-.4564-.533-.3042-1.065-.6084-1.597-.9887.304.4564.684.8366 1.064 1.2169.837.8366 1.75 1.521 2.814 1.9774.989.5323 2.054.7605 3.118.7605h32.931l.989-.9887h-33.92z" fill="#000"/><path d="m200.779 30.2885v9.9629l1.065-.9887v-9.9629h-2.282v.9887z" fill="#000"/><path d="m200.779 3.74624v13.23316h-23.348-7.377-.076v7.4532 2.5858h1.065v-3.7266-5.3237h5.399 25.402v-15.21053h-2.282v.98867z" fill="#000"/><path d="m172.335 14.6978 1.674-1.6731h-7.986v7.9094l1.673-1.6731v-4.5632z" fill="#000"/><path d="m196.901 13.0247h-15.515l-1.673 1.6732h18.785v-9.27847h-1.597z" fill="#000"/><path d="m166.023 29.6802h2.282v-1.6732h-.609v-1.2929l-1.673 1.6732z" fill="#000"/><path d="m196.9 39.5669h-35.44c-.685 0-1.445-.1521-2.13-.5323-.228-.1521-.456-.3043-.684-.4564.304.4564.608.9127 1.065 1.369.532.5324 1.14.9126 1.749 1.2929h37.114v-9.2784h-1.674z" fill="#000"/><path d="m196.9 29.6802v.6085h1.598v-.9887h-27.455v-1.2929h-1.065v1.6731z" fill="#000"/><path d="m156.441 37.9699c-.229-.6845-.381-1.369-.381-2.1295 0-.0761-.076-.0761-.076-.1521-.38-.6845-.532-1.445-.532-2.1295v-2.0534-22.51162-.07606c-.304.76053-.457 1.59708-.457 2.35768v20.6863 3.8787c0 .6084.077 1.2168.305 1.8253.228.2281.38.5323.608.7605.076.076.228.2281.304.3042.381.3803.761.6845 1.141.9887-.228-.3803-.456-.7606-.684-1.1408-.076-.1521-.152-.3803-.228-.6084z" fill="#000"/><path d="m255.005 30.2885v13.2331h-41.449c-.913 0-1.901-.2281-2.814-.6844-.532-.2282-1.065-.6084-1.521-.9887-.38-.0761-.684-.2282-1.065-.3803-.228-.1521-.456-.2281-.76-.3802l-.228.2281c.152.1521.304.3042.456.4563.837.8366 1.749 1.5211 2.814 1.9774.989.5324 2.053.7605 3.118.7605h42.514v-15.2105h-2.282v.9887z" fill="#000"/><path d="m205.266 9.06995v-.07605c-.304.76052-.456 1.5971-.456 2.3576v24.489.3803l.837-.8366c-.229-.6084-.381-1.2168-.381-1.8253z" fill="#000"/><path d="m238.577 14.6978v.4563h-5.247l-.152.1521h6.996v-2.2815h-4.715l-1.597 1.6731z" fill="#000"/><path d="m218.271 15.3062h7.529l.153-.1521h-7.758v7.7573l.076-.076z" fill="#000"/><path d="m226.409 14.6978 1.673-1.6731h-12.092v12.0923l1.749-1.7492v-8.67z" fill="#000"/><path d="m248.388 29.6802h2.662v.6085h1.673v-.9887h-.912c.304-.2282.608-.4563.912-.6845v-.6084h-.836c-.533.4563-1.141.8366-1.826 1.1408-.532.3042-1.14.4563-1.673.5323z" fill="#000"/><path d="m247.247 28.1592c.305 0 .685-.0761.989-.1521h-26.086v.1521z" fill="#000"/><path d="m220.021 29.6802h.456v-1.6731l-.456.4563z" fill="#000"/><path d="m252.799 24.3565c.304-.6084.533-1.2929.533-1.9773-.229.5323-.457 1.0647-.761 1.521-.837 1.2929-1.825 2.2816-2.966 3.0421h.837c.38-.2281.684-.5324.988-.7605.533-.4563.989-1.1408 1.369-1.8253z" fill="#000"/><path d="m253.484 7.24449c.304.45632.608.91263.836 1.36894.457.91264.685 1.82527.685 2.81397v10.8755c0 .9127-.228 1.9013-.685 2.814-.38.7605-.836 1.3689-1.369 1.9774h.837v.5323c.38-.3803.684-.8366 1.065-1.3689.836-1.2929 1.217-2.5858 1.217-3.9548v-10.8755c0-1.0647-.229-2.05343-.761-3.11817-.532-.98869-1.217-1.97738-2.053-2.81396-.381-.38027-.761-.68447-1.217-.98868.38.45632.684.98869.912 1.52106.228.38026.381.76053.533 1.21684z" fill="#000"/><path d="m250.137 6.40796c.152.1521.228.38027.305.53238.38.68447.532 1.44499.532 2.12946v10.8755c0 .6845-.152 1.445-.532 2.1295-.381.6845-.837 1.2929-1.445 1.9013-.609.5324-1.217.9887-1.978 1.369-.684.3802-1.445.5324-2.129.5324h-22.36l-.456.4563v1.2168h22.816c.912 0 1.901-.2282 2.814-.6845.912-.4563 1.749-.9886 2.509-1.6731.761-.6845 1.369-1.5211 1.75-2.4337.456-.9126.684-1.8253.684-2.814v-10.8755c-.38-.68447-.76-1.29288-1.369-1.7492-.304-.38026-.684-.68448-1.141-.91264z" fill="#000"/><path d="m251.05 39.5669h-39.776c-.608 0-1.293-.1521-1.901-.4563l-.304.3042c.152.1521.304.3803.456.5324.533.5324 1.141.9126 1.749 1.2929h41.449v-9.2784h-1.673z" fill="#000"/><path d="m134.841 99.4207c1.217 0 2.358-.2282 3.423-.6085 1.065-.3802 2.053-.9887 2.814-1.6731.836-.6845 1.445-1.445 1.901-2.3576.456-.8366.685-1.7493.685-2.6619v-34.4519h-2.282v.9887h1.217v33.4632c0 .7605-.228 1.5211-.609 2.2816-.38.7605-.988 1.445-1.673 2.0534-.684.6084-1.521 1.0647-2.509 1.445-.913.3803-1.902.5324-2.967.5324h-2.129c-.532 0-.913-.0761-1.065-.2282-.684-.1521-1.521-.5323-2.509-1.1408-.077 0-.229-.076-.305-.1521-1.977-.6084-4.715-2.3576-8.289-5.3237-2.51-2.0534-5.628-4.7913-9.355-8.2897l-.076.0761c4.791 4.4871 8.67 7.9855 11.712 10.4952 3.575 2.9661 6.389 4.7153 8.29 5.3237.304.0761.532.1521.76.2282.229 0 .533.076.913.076h2.053z" fill="#000"/><path d="m138.644 58.048v.6084h1.673v-.9887h-3.574l-.38.3803z" fill="#000"/><path d="m135.526 95.6178c.913-.3803 1.749-.8366 2.51-1.445.684-.6084 1.293-1.2929 1.673-2.0534s.608-1.5211.608-2.2816v-29.5085h-1.673v29.5085c0 .5324-.152 1.1408-.532 1.6732-.305.5323-.761 1.0647-1.293 1.521-.533.4563-1.217.8366-1.978 1.0647-.76.3043-1.521.3803-2.357.3803h-2.054c-.228 0-.38 0-.38-.076h.076c-.836-.0761-1.901-.5324-3.27-1.445-1.369-.9127-3.118-2.2816-5.248-4.1069-2.129-1.8253-4.715-4.1068-7.757-6.9208-.228-.2282-.456-.4563-.685-.6845l-.076.0761c1.065.9887 2.13 1.9774 3.118 2.89 3.043 2.8139 5.628 5.0955 7.758 6.9208 2.129 1.8253 3.879 3.1942 5.248 4.1068.608.3803 1.064.6845 1.597.9127h1.825c.913 0 1.977-.1521 2.89-.5324z" fill="#000"/><path d="m139.1 95.2375c.533-.4563.989-.9126 1.293-1.521.304-.5324.533-1.1408.533-1.6732v-.076c-.076.1521-.152.3803-.229.5324-.456.8365-1.14 1.5971-1.901 2.3576-.836.6845-1.749 1.2168-2.814 1.6731-.228.0761-.456.1521-.684.2282.684-.0761 1.293-.1521 1.901-.3803.761-.3042 1.369-.6844 1.901-1.1408z" fill="#000"/><path d="m195.075 60.4054c-.38-.3802-.76-.6844-1.217-.9887.381.4564.685.9887.913 1.5211.228.3803.38.8366.532 1.2929.305.4563.609.9126.837 1.3689.456.9127.684 1.8253.684 2.814v10.7234c0 .9127-.228 1.9013-.684 2.814-.38.7605-.837 1.3689-1.369 1.9773h.837v.5324c.38-.3803.684-.8366 1.064-1.3689.837-1.2929 1.217-2.5858 1.217-3.9548v-10.8755c0-1.0647-.228-2.0534-.76-3.1182-.609-.9887-1.293-1.9013-2.054-2.7379z" fill="#000"/><path d="m196.748 85.1987v13.2331h-41.448c-.913 0-1.902-.2281-2.814-.6844-.381-.2282-.761-.4564-1.141-.6845l-.685.6845c.457.3802.989.6084 1.521.9126.989.5323 2.054.7605 3.119.7605h42.513v-15.2105h-2.282v.9887z" fill="#000"/><path d="m190.208 84.5901h2.662v.6085h1.673v-.9887h-.913c.304-.2282.609-.4563.913-.6845v-.6084h-.837c-.532.4563-1.141.8366-1.825 1.1408-.609.2281-1.141.4563-1.673.5323z" fill="#000"/><path d="m192.87 94.4771h-38.863l-1.369 1.369c.152.076.304.2281.456.3042h41.449v-9.2785h-1.673z" fill="#000"/><path d="m189.067 83.0691c.304 0 .685-.0761.989-.1521h-24.489l-.152.1521z" fill="#000"/><path d="m194.543 79.2667c.304-.6085.532-1.2929.532-1.9774-.228.5324-.456 1.0647-.76 1.5211-.837 1.2929-1.826 2.2815-2.966 3.0421h.836c.38-.2282.685-.5324.989-.7606.608-.5323 1.065-1.1408 1.369-1.8252z" fill="#000"/><path d="m180.397 69.5319v.5324h-1.977l-.076.1521h3.65v-2.2816h-1.369l-1.673 1.5971z" fill="#000"/><path d="m171.499 69.5319 1.673-1.5971h-15.363v15.3627l1.75-1.7493v-12.0163z" fill="#000"/><path d="m160.091 70.2163h10.799l.153-.1521h-11.028v11.0277l.076-.0761z" fill="#000"/><path d="m147.618 90.7504v-.1521c-.38-.6845-.532-1.445-.532-2.1295v-24.4889-.0761c-.304.7605-.456 1.5971-.456 2.3576v24.489c0 .6845.152 1.369.38 2.0534.228.2282.38.4563.608.6845l.457-.4563c-.305-.7605-.457-1.445-.457-2.2816z" fill="#000"/><path d="m153.094 58.048h29.965l.38-.3803h-28.139c-.685 0-1.445.0761-2.206.3803z" fill="#000"/><path d="m189.828 58.6563c.684.076 1.368.3042 2.053.6084.456.2282.913.4563 1.293.7605-.304-.4563-.685-.9126-1.141-1.2929-.304-.3042-.608-.5323-.989-.8365-.152-.0761-.304-.0761-.456-.1521z" fill="#000"/><path d="m191.957 61.3181c.152.1521.228.3803.304.5324.381.6844.533 1.445.533 2.1295v10.8755c0 .6845-.152 1.445-.533 2.1295-.38.6844-.836 1.2929-1.445 1.9013-.608.5323-1.217.9887-1.977 1.3689-.685.3803-1.445.5324-2.13.5324h-19.013l-1.673 1.6732h20.686c.913 0 1.902-.2282 2.814-.6845.913-.4563 1.75-.9887 2.51-1.6732.761-.6845 1.369-1.521 1.749-2.4337.457-.9126.685-1.8252.685-2.8139v-10.8755c-.38-.6845-.761-1.2929-1.369-1.7493-.304-.3802-.685-.6844-1.141-.9126z" fill="#000"/><path d="m245.726 62.3827c-.456-.4563-.912-.8365-1.369-1.1408.153.3043.381.6085.533.9127.38.7605.532 1.445.532 2.2055v9.6587c0 .7605-.152 1.445-.532 2.2055l2.205-2.2055v-9.5066c-.304-.8366-.76-1.521-1.369-2.1295z" fill="#000"/><path d="m232.645 95.7701 11.941 15.3629h.532l-12.169-15.591z" fill="#000"/><path d="m234.47 66.7939h-30.877v2.2816h30.877z" fill="#000"/><path d="m201.312 66.7939v-8.67h38.026c.684 0 1.445.1521 2.129.5324.076 0 .076.076.152.076.913 0 1.902.2282 2.814.6845.457.2282.913.4563 1.293.7605-.304-.4563-.684-.8365-1.064-1.2168-.305-.3042-.685-.6084-1.065-.9126-.685-.2282-1.293-.3042-1.978-.3042h-40.84v12.0163h1.065v-2.814h-.532z" fill="#000"/><path d="m241.467 87.0238 16.276 22.3592h-11.941l1.293 1.75h12.549l-17.873-24.4894z" fill="#000"/><path d="m216.294 84.8945v13.4613h-14.45v-1.2168h-1.065v2.2816h16.504v-13.5374h6.236l-.761-.9887z" fill="#000"/><path d="m223.215 80.9397h-10.952v13.4613h-8.67v1.6732h10.419v-13.4613h8.366l.532.6084h2.13z" fill="#000"/><path d="m201.312 94.4011v-22.5116h.532v-1.6732h-1.065v25.8579h1.065v-1.6731z" fill="#000"/><path d="m224.66 84.8945h-.457l5.248 6.7687.304-.3042z" fill="#000"/><path d="m247.932 62.2307c.304.4563.608.9126.836 1.445.457.9126.685 1.9013.685 2.89v5.0195l1.065-1.0648v-3.9547c0-1.1408-.229-2.2055-.761-3.2703-.532-1.0647-1.217-2.0534-2.053-2.89-.381-.3802-.761-.6844-1.141-.9887.38.4564.684.9887.912 1.5211.153.5324.305.9126.457 1.2929z" fill="#000"/><path d="m236.448 80.1792 1.901 2.5858 3.042-3.0421c-.684.3042-1.293.4563-1.977.4563z" fill="#000"/><path d="m243.977 84.8185c.913-.3042 1.749-.6845 2.51-1.2929.76-.6084 1.445-1.2929 2.053-2.0534.609-.7605 1.065-1.5971 1.445-2.5098.076-.2281.152-.5323.228-.7605l-2.89 2.89c-.076.0761-.152.2282-.304.3042-.228.3042-.532.5324-.836.7606l-2.738 2.7379 19.773 27.0744h-.912l.912 1.293h-16.427l-.989-1.293h-1.445l1.75 2.282h19.393z" fill="#000"/><path d="m144.196 4.88714c-.609-.38026-1.293-.76052-2.054-.98867-1.521-.53237-3.27-.76053-5.247-.76053-1.445 0-2.966.07605-4.411.30421-.152 0-.228.07605-.38.07605l-18.633 18.6329-13.462 17.4921h.533 1.445 2.053 8.746l4.868-6.0842h18.632v2.2816 1.6731 2.1295h.533 1.749 8.442v-28.1395c0-1.82523-.304-3.27025-.989-4.48709-.38-.91263-.989-1.5971-1.825-2.12947zm-7.91 11.63606v1.9013 6.3124h-5.551-2.054-4.183l7.149-8.4419.152-.1521c.457-.4563.913-.9126 1.445-1.2928.533-.4564 1.065-.6845 1.521-.6845.457 0 .837.1521 1.141.3802.304.3043.456.5324.456.8366v1.1408z" fill="#13b6e2"/><path d="m114.155 42.229.304-.3803 4.563-5.5519h.609 13.841v1.1408 1.1408 3.6506h2.282 1.065 7.909l.989-.9887h-7.149-1.749-1.065-1.217v-2.6619-1.1408-1.6731-.6085h-15.971l-4.943 6.0843h-10.876-2.053-1.4453-2.5858l7.9091-10.2672-6.388 6.4645-3.7266 4.7914h4.0308 1.445z" fill="#13b6e2"/><path d="m136.895 1.46464c1.749 0 3.422.15212 4.867.53238 1.445.30421 2.738.83656 3.727 1.59709.684.53237 1.293 1.21685 1.825 1.97738.228.30421.38.68446.609 1.06473.456.98868.684 2.05344.836 3.34634.076.45634.076.91264.076 1.44504v26.7705l1.065-1.0647v-25.7058c0-1.44505-.152-2.73795-.456-3.87874-.153-.45632-.305-.91262-.457-1.36894-.228-.45632-.456-.91264-.76-1.2929-.533-.83658-1.141-1.52107-1.902-2.05344-1.14-.83658-2.509-1.44499-4.106-1.7492-1.598-.380263-3.347-.532378-5.248-.532378-.608 0-1.217.000005-1.825.076057l-1.141 1.140791c.989-.22816 1.901-.30421 2.89-.30421z" fill="#13b6e2"/><path d="m133.625 23.0635h.912v-1.0647-1.8253-2.2816-1.9773c-.304.076-.532.2281-.684.3802s-.304.2282-.38.3803l-.685.6844-4.867 5.7801h2.129 2.054 1.521zm-3.347-.9887 3.271-3.7266v.6085 2.5097.6084h-.533-2.053z" fill="#13b6e2"/><path d="m153.778 9.06991c0-.91264.229-1.90133.685-2.81396.456-.91264 1.065-1.7492 1.749-2.43368.761-.68447 1.597-1.29291 2.434-1.74922.912-.45632 1.825-.68447 2.738-.68447h24.185l.988-.988678h-25.173c-1.065 0-2.13.228158-3.118.760528-.989.53237-1.978 1.14079-2.814 1.97737-.837.83658-1.521 1.7492-2.054 2.81394-.532.98869-.76 2.05343-.76 3.11817v24.48899c0 .2281 0 .4563.076.6845l1.064-1.0648z" fill="#13b6e2"/><path d="m198.498 1.46475v1.29291.98867 1.67317 9.2784h-18.785l-.989.9887h20.838v-11.94027-.98867-2.281586h-5.628l-.988.988676z" fill="#13b6e2"/><path d="m167.696 14.6978v4.5631l1.065-1.0647v-2.5097h2.586l.988-.9887z" fill="#13b6e2"/><path d="m159.482 41.9248c.609.1521 1.293.3042 1.902.3042h37.494l.684-.6844v-11.2559-.9886-2.2816h-28.443-1.141-1.217v-1.445l-1.065 1.0647v1.369h.609 1.673 1.064 27.455v1.2929.9886 1.6732 9.2784h-37.113c-.913 0-1.825-.2281-2.738-.6844-.456-.2282-.837-.4564-1.293-.7606-.38-.3042-.761-.6084-1.141-.9886-.076-.0761-.228-.2282-.304-.3043l-.684.6845c.076.0761.152.2282.304.3042.38.3803.76.6845 1.217 1.0648.532.3802.988.6844 1.597.9887.304.1521.76.3042 1.14.3802z" fill="#13b6e2"/><path d="m157.353 37.6658c.38.3802.761.6844 1.217.9126.228.1521.456.3042.684.4563.685.3803 1.369.5324 2.13.5324h35.44v-7.6053-1.6731-.6085h-26.846-1.673-2.282v-1.3689l-8.974 9.0503c.152.076.228.2281.304.3042z" fill="#13b6e2"/><path d="m196.9 13.0248v-7.60528-1.67317-.60841h-5.627l-9.887 9.88686z" fill="#13b6e2"/><path d="m174.009 13.0248 9.886-9.88686h-22.435-.076c-.685 0-1.445.15209-2.13.53235-.684.38027-1.292.8366-1.901 1.36897-.608.53237-1.065 1.21684-1.445 1.90131-.304.68448-.532 1.36894-.532 2.05341v.07606 22.51156l10.647-10.6473v-7.9095z" fill="#13b6e2"/><path d="m238.577 15.1541v-.4563h-4.715l-.532.4563z" fill="#13b6e2"/><path d="m247.78 2.14909c.532.22816 1.064.60843 1.521.91264.304.22816.684.53238.988.83659.457.38026.761.83656 1.141 1.29288.228.38026.457.76053.685 1.14079.456.91263.684 1.82527.684 2.7379v10.87551c0 .9127-.228 1.9013-.684 2.814-.457.9126-1.065 1.7492-1.749 2.4337-.761.6845-1.598 1.2929-2.51 1.6731-.913.4563-1.825.6845-2.814.6845h-22.816-1.293l-.532.5324h.076 1.673 26.086 3.575.836v.6084.6845.9887 1.6731 9.2784h-41.449c-.912 0-1.901-.2281-2.814-.6844-.152-.0761-.228-.1521-.38-.1521l-.684.6844c.228.1521.456.3043.76.3803.38.1521.685.3042 1.065.3803.684.2281 1.369.3042 2.053.3042h42.514v-11.9403-.9887-1.7492-.5324h-.837-2.586-.836c1.141-.7605 2.129-1.8252 2.966-3.0421.304-.5323.608-.9887.76-1.521.305-.7606.457-1.5971.457-2.4337v-10.87555c0-.60842-.076-1.21684-.304-1.82526-.153-.45632-.305-.83659-.533-1.29291-.304-.53236-.608-1.06473-.912-1.52105-.305-.45632-.685-.83659-1.065-1.29291-.837-.83658-1.749-1.52103-2.814-1.97735-.228-.07605-.38-.15212-.609-.22817l-.76.76053c.456.07605.76.22816 1.141.38026z" fill="#13b6e2"/><path d="m204.201 36.3728c-.456-.9126-.684-1.8252-.684-2.8139v-24.48899c0-.91264.228-1.90133.684-2.81396.457-.91264 1.065-1.7492 1.75-2.43368.76-.68447 1.597-1.29291 2.509-1.74922.913-.45632 1.826-.68447 2.814-.68447h28.368l.989-.988678h-29.433c-1.064 0-2.129.228158-3.118.760528s-1.977 1.14079-2.814 1.97737c-.836.83658-1.521 1.7492-2.053 2.81394-.533.98869-.761 2.05343-.761 3.11817v24.48899c0 1.0647.228 2.1294.761 3.1181.152.2282.228.4564.38.6845l.685-.6845c0-.076-.077-.1521-.077-.3042z" fill="#13b6e2"/><path d="m225.953 15.1541.456-.4563h-8.67v8.67l.456-.4563v-7.7574z" fill="#13b6e2"/><path d="m240.174 13.0248v2.2816 1.521h-8.441l-9.051 9.0503h22.36c.684 0 1.445-.1521 2.129-.5324.685-.3802 1.369-.8366 1.978-1.3689.608-.5324 1.064-1.1408 1.445-1.9013.38-.6845.532-1.369.532-2.1295v-10.87556c0-.68447-.152-1.44499-.532-2.12947-.076-.22815-.228-.38027-.304-.53237-.305-.45632-.685-.98868-1.065-1.36894-.533-.53237-1.141-.91264-1.825-1.29291-.077 0-.077-.07606-.153-.07606-.608-.30421-1.216-.4563-1.749-.53235l-9.887 9.88686z" fill="#13b6e2"/><path d="m209.373 39.1107c.609.3042 1.217.4563 1.901.4563h39.776v-7.6052-1.6732-.6084h-2.662-27.911-.532-1.217z" fill="#13b6e2"/><path d="m215.99 13.0248h12.092l9.887-9.88686h-26.619-.076c-.684 0-1.445.15209-2.129.53235-.685.38027-1.293.8366-1.901 1.36897-.609.53237-1.065 1.21684-1.445 1.90131-.305.68448-.533 1.36894-.533 2.05341v.07606 24.48896c0 .6084.152 1.2169.38 1.8253l10.344-10.3432z" fill="#13b6e2"/><path d="m219.868 21.2384 4.411-4.411h-4.411z" fill="#13b6e2"/><path d="m128.757 96.9108c.152.076.228.076.304.1521.153.076.305.076.381.076.228 0 .532.0761.912.0761h2.054c.988 0 1.901-.1521 2.738-.3803.228-.076.456-.1521.684-.2281 1.065-.3803 2.054-.9887 2.814-1.6732.837-.6845 1.445-1.445 1.901-2.3576.076-.1522.153-.3803.229-.5324.304-.6845.456-1.445.456-2.2055v-31.1816-.9887-2.2816h-2.358l-.988.9887h2.281v1.2929.9887 1.6731 29.5085c0 .7605-.228 1.521-.608 2.2816-.381.7605-.989 1.4449-1.673 2.0534-.685.6084-1.521 1.0647-2.51 1.445-.913.3802-1.901.5323-2.966.5323h-1.825-.153c-.532 0-.912-.076-1.064-.2281-.913-.2282-1.978-.7605-3.347-1.6732-1.369-.9126-3.042-2.2055-5.019-3.8787-1.977-1.6731-4.259-3.7266-6.921-6.0842-.684-.6084-1.369-1.2168-2.053-1.9013l-.913.9126c3.727 3.4224 6.845 6.2364 9.355 8.2898 3.65 2.89 6.388 4.7152 8.289 5.3237z" fill="#13b6e2"/><path d="m125.107 55.386v6.4645l.912-.9127v-4.5631h4.64l.988-.9887z" fill="#13b6e2"/><path d="m121.608 88.8492c2.13 1.8253 3.879 3.1942 5.248 4.1068 1.369.9127 2.434 1.369 3.27 1.4451h-.076c.076.076.228.076.38.076h2.054c.836 0 1.597-.1521 2.358-.3803.76-.3042 1.368-.6084 1.977-1.0647.532-.4563.989-.9126 1.293-1.5211.304-.5323.532-1.1407.532-1.6731v-29.5085-1.6731-.6084h-2.281l-8.594 8.5939v11.9403 1.9774c-1.445-1.369-2.89-2.6619-4.259-3.9548-1.065-.9887-2.054-1.9013-2.966-2.7379l-7.377 7.3771c.228.2282.456.4563.684.6845 3.042 2.7379 5.628 5.0955 7.757 6.9208z" fill="#13b6e2"/><path d="m161.688 79.4186 7.681-7.6813h-7.681z" fill="#13b6e2"/><path d="m181.994 67.9347v2.2815 1.5211h-5.172l-9.126 9.0503h19.089c.685 0 1.445-.1521 2.13-.5324.684-.3803 1.369-.8366 1.977-1.369.609-.5323 1.065-1.1407 1.445-1.9013.381-.6844.533-1.3689.533-2.1294v-10.8756c0-.6844-.152-1.445-.533-2.1295-.076-.2281-.228-.3802-.304-.5323-.304-.4563-.684-.9127-1.065-1.369-.38-.3802-.836-.6844-1.293-.9887l-9.05 8.9743z" fill="#13b6e2"/><path d="m157.809 67.9347h15.439l9.887-9.8868h-29.965-.076c-.684 0-1.445.1521-2.129.5323-.685.3803-1.293.8366-1.902 1.369-.608.5323-1.064 1.2168-1.445 1.9013-.304.6845-.532 1.3689-.532 2.0534v.0761 24.4889c0 .6845.152 1.445.532 2.1295.305.6084.685 1.1408 1.141 1.6732l8.974-8.9742v-15.3627z" fill="#13b6e2"/><path d="m192.87 94.4769v-7.6052-1.6732-.6084h-2.662-26.314l-9.887 9.8868z" fill="#13b6e2"/><path d="m146.934 92.8038c-.38-.4563-.685-.9887-.989-1.521-.456-.9127-.684-1.8253-.684-2.814v-24.489c0-.9126.228-1.9013.684-2.8139.456-.9127 1.065-1.7492 1.749-2.4337.761-.6845 1.597-1.2929 2.51-1.7492s1.825-.6845 2.814-.6845h31.714l.989-.9887h-32.703c-1.065 0-2.129.2282-3.118.7605-.989.5324-1.978 1.1408-2.814 1.9774-.837.8366-1.521 1.7492-2.054 2.814-.532.9887-.76 2.0534-.76 3.1181v24.489c0 1.0647.228 2.1295.76 3.1182.457.9126 1.065 1.7492 1.826 2.5097l.608-.6084c-.152-.1521-.304-.4563-.532-.6845z" fill="#13b6e2"/><path d="m194.771 81.9283h-2.586-.836c1.14-.7605 2.129-1.8253 2.966-3.0421.304-.5324.608-.9887.76-1.5211.304-.7605.456-1.5971.456-2.4336v-10.8756c0-.6084-.076-1.2168-.304-1.8252-.152-.4564-.304-.8366-.532-1.2929-.304-.5324-.609-1.0648-.913-1.5211s-.684-.8366-1.064-1.2929c-.381-.3802-.837-.7605-1.293-1.0647l-.685.6845c.076.076.228.152.304.2281.305.2282.685.5324.989.8366.456.3802.761.8366 1.141 1.2929.228.3803.456.7605.684 1.1408.457.9126.685 1.8253.685 2.7379v10.8755c0 .9126-.228 1.9013-.685 2.814-.456.9126-1.064 1.7492-1.749 2.4336-.76.6845-1.597 1.2929-2.51 1.6732-.912.4563-1.825.6845-2.814.6845h-20.686l-.532.5324h24.489 3.574.837v.6084.6844.9887 1.6732 9.2024h-41.449c-.228 0-.456 0-.684-.0761l-.837.8366c.532.1521.989.1521 1.521.1521h42.513v-11.9403-.9887-1.6731-.5324z" fill="#13b6e2"/><path d="m180.397 70.0641v-.5324h-1.445l-.532.5324z" fill="#13b6e2"/><path d="m171.043 70.0641.456-.5324h-11.94v12.0164l.456-.4563v-11.0277z" fill="#13b6e2"/><path d="m262.382 112.121h.913l-19.774-27.1505-.837.8365 18.329 25.326h-1.369-12.549-1.977-.532l-11.941-15.363-.76.8365 12.016 15.5145h.532 1.445z" fill="#13b6e2"/><path d="m245.27 109.383h.532 11.941l-16.276-22.3591-7.605 7.6053z" fill="#13b6e2"/><path d="m224.203 84.8943-1.293-1.6731-.456-.6084h-8.366v13.4613h-10.419-1.749-1.065-1.217v-25.858h1.217 1.065 30.877v-.6084h-30.877-1.065-1.217v-13.2331h39.776c.913 0 1.901.2281 2.814.6844.532.2282.989.5324 1.445.8366.38.3042.76.6084 1.065.9126.38.3803.76.8366 1.064 1.2169.305.3803.533.8366.761 1.2929.456.9126.684 1.9013.684 2.89v.076 9.5066l1.065-1.0647v-8.5179c0-.6845-.152-1.369-.304-2.0534-.152-.3803-.304-.8366-.456-1.2169-.229-.5323-.609-1.0647-.913-1.521-.38-.4563-.761-.9127-1.141-1.2929-.836-.8366-1.825-1.5211-2.89-2.0535-1.065-.5323-2.129-.7605-3.194-.7605h-40.84v41.753h2.281 1.065 13.157v-13.5374h6.693l.988 1.2929.761.9887 5.095 6.5405.837-.8366z" fill="#13b6e2"/><path d="m236.448 80.1792h2.89c.684 0 1.293-.1521 1.977-.4563l3.575-3.5745c.304-.6845.532-1.445.532-2.2055v-9.6587c0-.6845-.152-1.445-.532-2.2055-.152-.3043-.305-.6085-.533-.9127-.228-.3802-.532-.7605-.912-1.1408-.533-.5323-1.141-.9886-1.826-1.3689-.076 0-.076-.0761-.152-.0761-.684-.3802-1.445-.5323-2.129-.5323h-38.026v8.746h.532 1.749 30.877v2.2816 2.814h-32.626-.532v22.5116h.532 1.749 8.67v-13.4614h10.952l1.749 2.2816 5.628 7.225 7.681-7.6813z" fill="#13b6e2"/><path d="m249.453 76.2245c0 .9126-.228 1.7492-.685 2.6618-.38.7605-.836 1.5211-1.445 2.2056l2.89-2.8901c.152-.6084.305-1.2929.305-1.9773v-5.704l-1.065 1.0648z" fill="#000"/><path d="m249.453 76.2245c0 .9126-.228 1.7492-.685 2.6618-.38.7605-.836 1.5211-1.445 2.2056l2.89-2.8901c.152-.6084.305-1.2929.305-1.9773v-5.704l-1.065 1.0648z" fill="#8e2de2" opacity=".1"/><path d="m244.89 76.2246c-.38.7605-.837 1.445-1.445 1.9773-.609.6085-1.217 1.0648-1.978 1.445-.076 0-.152.0761-.152.0761l-3.042 3.0421 3.118 4.259.381-.3803-3.042-4.1829h1.521l-.457-.6084c.913-.0761 1.749-.3042 2.662-.8366s1.673-1.1408 2.358-1.9013c.684-.7606 1.293-1.5971 1.673-2.5098.456-.9126.684-1.8252.684-2.6618v-.0761l-2.205 2.2056c-.076.076-.076.1521-.076.1521z" fill="#000"/><path d="m244.89 76.2246c-.38.7605-.837 1.445-1.445 1.9773-.609.6085-1.217 1.0648-1.978 1.445-.076 0-.152.0761-.152.0761l-3.042 3.0421 3.118 4.259.381-.3803-3.042-4.1829h1.521l-.457-.6084c.913-.0761 1.749-.3042 2.662-.8366s1.673-1.1408 2.358-1.9013c.684-.7606 1.293-1.5971 1.673-2.5098.456-.9126.684-1.8252.684-2.6618v-.0761l-2.205 2.2056c-.076.076-.076.1521-.076.1521z" fill="#8e2de2" opacity=".1"/><path d="m229.755 91.3589-.304.3042 3.194 4.1068.304-.2281z" fill="#000"/><path d="m229.755 91.3589-.304.3042 3.194 4.1068.304-.2281z" fill="#8e2de2" opacity=".1"/><path d="m242.76 84.0578.685.9887 2.738-2.7379c-.457.3803-.989.7605-1.521 1.0648-.609.3042-1.217.5323-1.902.6844z" fill="#000"/><path d="m242.76 84.0578.685.9887 2.738-2.7379c-.457.3803-.989.7605-1.521 1.0648-.609.3042-1.217.5323-1.902.6844z" fill="#8e2de2" opacity=".1"/><path d="m244.205 81.2439c-.76.5324-1.521.9887-2.357 1.2169.684 0 1.293-.2282 1.977-.5324.685-.3803 1.369-.8366 1.977-1.445.609-.6084 1.065-1.2168 1.445-1.9774.305-.6084.457-1.1407.533-1.7492-.381.8366-.837 1.6732-1.445 2.4337-.685.7606-1.369 1.445-2.13 2.0534z" fill="#000"/><path d="m244.205 81.2439c-.76.5324-1.521.9887-2.357 1.2169.684 0 1.293-.2282 1.977-.5324.685-.3803 1.369-.8366 1.977-1.445.609-.6084 1.065-1.2168 1.445-1.9774.305-.6084.457-1.1407.533-1.7492-.381.8366-.837 1.6732-1.445 2.4337-.685.7606-1.369 1.445-2.13 2.0534z" fill="#8e2de2" opacity=".1"/><path d="m241.696 82.5368c.076 0 .076-.0761.152-.0761.836-.3042 1.597-.6845 2.357-1.2168.761-.6085 1.445-1.2929 2.054-2.0535.608-.7605 1.064-1.521 1.445-2.4336v-.0761c.38-.9126.532-1.8253.532-2.7379v-1.1408l-1.065 1.0648v.076c0 .9126-.228 1.7492-.684 2.6618-.456.9127-.989 1.7493-1.673 2.5098-.685.7605-1.445 1.3689-2.358 1.9013s-1.749.7605-2.662.8366l.457.6084 2.433 3.3463.837-.8366-.685-.9886z" fill="#13b6e2"/><path d="m241.696 82.5368c.076 0 .076-.0761.152-.0761.836-.3042 1.597-.6845 2.357-1.2168.761-.6085 1.445-1.2929 2.054-2.0535.608-.7605 1.064-1.521 1.445-2.4336v-.0761c.38-.9126.532-1.8253.532-2.7379v-1.1408l-1.065 1.0648v.076c0 .9126-.228 1.7492-.684 2.6618-.456.9127-.989 1.7493-1.673 2.5098-.685.7605-1.445 1.3689-2.358 1.9013s-1.749.7605-2.662.8366l.457.6084 2.433 3.3463.837-.8366-.685-.9886z" fill="#8e2de2" opacity=".1"/><path d="m229.451 91.6631-.837.7605 3.271 4.1829.76-.8366z" fill="#13b6e2"/><path d="m229.451 91.6631-.837.7605 3.271 4.1829.76-.8366z" fill="#8e2de2" opacity=".1"/><path d="m230.592 90.4462 3.27 4.1829 7.605-7.6053-3.118-4.2589z" fill="#13b6e2"/><path d="m230.592 90.4462 3.27 4.1829 7.605-7.6053-3.118-4.2589z" fill="#8e2de2" opacity=".1"/><path d="m241.543 79.6468c.685-.3802 1.369-.8365 1.978-1.445.608-.6084 1.065-1.2168 1.445-1.9773 0 0 0-.0761.076-.0761l-3.575 3.5745c-.076 0 0 0 .076-.0761z" fill="#13b6e2"/><path d="m241.543 79.6468c.685-.3802 1.369-.8365 1.978-1.445.608-.6084 1.065-1.2168 1.445-1.9773 0 0 0-.0761.076-.0761l-3.575 3.5745c-.076 0 0 0 .076-.0761z" fill="#8e2de2" opacity=".1"/><path d="m148.759 38.198-3.042 3.0421h3.042z" fill="#000"/><path d="m148.759 38.198-3.042 3.0421h3.042z" fill="#8e2de2" opacity=".1"/><path d="m174.009 13.0247-1.674 1.6731h7.378l1.673-1.6731z" fill="#000"/><path d="m174.009 13.0247-1.674 1.6731h7.378l1.673-1.6731z" fill="#8e2de2" opacity=".1"/><path d="m166.023 20.9342v7.4531l1.673-1.6731v-7.4532z" fill="#000"/><path d="m166.023 20.9342v7.4531l1.673-1.6731v-7.4532z" fill="#8e2de2" opacity=".1"/><path d="m136.743 57.6677h-7.377l-.381.3803h7.377z" fill="#000"/><path d="m136.743 57.6677h-7.377l-.381.3803h7.377z" fill="#8e2de2" opacity=".1"/><path d="m149.824 37.1333-1.065 1.0647v3.0421h-3.042l-.989.9887h5.096z" fill="#13b6e2"/><path d="m149.824 37.1333-1.065 1.0647v3.0421h-3.042l-.989.9887h5.096z" fill="#8e2de2" opacity=".1"/><path d="m155.223 37.7419c-.304-.4563-.608-.9127-.836-1.369-.456-.9126-.685-1.8252-.685-2.8139v-.3803l-1.064 1.0647c.076.8366.304 1.5971.76 2.4337.457.9126 1.065 1.7492 1.749 2.4337l.685-.6845c-.152-.1521-.38-.3802-.609-.6844z" fill="#13b6e2"/><path d="m155.223 37.7419c-.304-.4563-.608-.9127-.836-1.369-.456-.9126-.685-1.8252-.685-2.8139v-.3803l-1.064 1.0647c.076.8366.304 1.5971.76 2.4337.457.9126 1.065 1.7492 1.749 2.4337l.685-.6845c-.152-.1521-.38-.3802-.609-.6844z" fill="#8e2de2" opacity=".1"/><path d="m171.347 15.6865h7.377l.989-.9887h-7.377z" fill="#13b6e2"/><path d="m171.347 15.6865h7.377l.989-.9887h-7.377z" fill="#8e2de2" opacity=".1"/><path d="m167.696 19.2608v7.4532l1.065-1.1408v-7.3772z" fill="#13b6e2"/><path d="m167.696 19.2608v7.4532l1.065-1.1408v-7.3772z" fill="#8e2de2" opacity=".1"/><path d="m174.009 13.0248h7.377l9.887-9.88686h-7.377z" fill="#13b6e2"/><path d="m174.009 13.0248h7.377l9.887-9.88686h-7.377z" fill="#8e2de2" opacity=".1"/><path d="m155.452 33.635c0 .6845.152 1.445.532 2.1295 0 .076.076.076.076.1521.304.5323.609.9887 1.065 1.445l8.974-8.9742v-7.3771l-10.647 10.6473z" fill="#13b6e2"/><path d="m155.452 33.635c0 .6845.152 1.445.532 2.1295 0 .076.076.076.076.1521.304.5323.609.9887 1.065 1.445l8.974-8.9742v-7.3771l-10.647 10.6473z" fill="#8e2de2" opacity=".1"/><path d="m131.647 55.386-.988.9887h7.377l.988-.9887z" fill="#13b6e2"/><path d="m131.647 55.386-.988.9887h7.377l.988-.9887z" fill="#8e2de2" opacity=".1"/><path d="m128.985 58.0479-1.216 1.1407v7.4532l8.594-8.5939z" fill="#13b6e2"/><path d="m128.985 58.0479-1.216 1.1407v7.4532l8.594-8.5939z" fill="#8e2de2" opacity=".1"/><path d="m130.811 3.67004c-1.978.38027-3.575 1.06475-4.716 2.05344l-12.624 16.35132 18.632-18.63291c-.456.07606-.836.1521-1.292.22815z" fill="#13b6e2"/><path d="m130.811 3.67004c-1.978.38027-3.575 1.06475-4.716 2.05344l-12.624 16.35132 18.632-18.63291c-.456.07606-.836.1521-1.292.22815z" fill="#8e2de2" opacity=".1"/><path d="m124.879 4.81106c1.445-1.21684 3.27-2.05341 5.551-2.58578 1.217-.30421 2.434-.45631 3.575-.60842l1.141-1.140786c-1.75.076053-3.499.304206-5.248.684466-2.053.45632-3.803 1.21685-5.248 2.35764l-1.14 1.14079-14.526 18.78503-5.096 6.5405-5.7039 7.3771 6.4649-6.4644z" fill="#13b6e2"/><path d="m204.354 36.753c.228.3802.456.8365.76 1.2168-.152-.5324-.304-1.0647-.304-1.6732z" fill="#8e2de2" opacity=".1"/><path d="m151.421 97.0628.152-.1521c-.152-.0761-.38-.0761-.532-.1522.076.1522.228.2282.38.3043z" fill="#8e2de2" opacity=".1"/><path d="m189.523 58.9605.228-.2282c-.228 0-.456-.0761-.76-.0761.228.0761.38.1522.532.3043z" fill="#8e2de2" opacity=".1"/><path d="m201.844 39.2629-1.065.9887v3.2703h-3.194l-.989.9887h5.248z" fill="#000"/><path d="m201.844 39.2629-1.065.9887v3.2703h-3.194l-.989.9887h5.248z" fill="#8e2de2" opacity=".1"/><path d="m206.559 40.5557c.228.3042.38.5323.608.7605l.229-.2282c-.305-.1521-.609-.3802-.837-.5323z" fill="#000"/><path d="m206.559 40.5557c.228.3042.38.5323.608.7605l.229-.2282c-.305-.1521-.609-.3802-.837-.5323z" fill="#8e2de2" opacity=".1"/><path d="m205.799 35.9165v-.1521c-.076-.076-.076-.2281-.152-.3042l-.837.8366c0 .5323.152 1.0647.304 1.6731.228.3042.533.6085.837.9127.38.3802.76.6844 1.141.9887-.229-.3803-.457-.7606-.685-1.1408-.38-.9887-.608-1.9014-.608-2.814z" fill="#000"/><path d="m205.799 35.9165v-.1521c-.076-.076-.076-.2281-.152-.3042l-.837.8366c0 .5323.152 1.0647.304 1.6731.228.3042.533.6085.837.9127.38.3802.76.6844 1.141.9887-.229-.3803-.457-.7606-.685-1.1408-.38-.9887-.608-1.9014-.608-2.814z" fill="#8e2de2" opacity=".1"/><path d="m215.99 29.6801h2.281v-1.6732h-.532v-4.6392l-1.749 1.7492z" fill="#000"/><path d="m215.99 29.6801h2.281v-1.6732h-.532v-4.6392l-1.749 1.7492z" fill="#8e2de2" opacity=".1"/><path d="m233.33 15.1541h-7.377l-.152.1521h7.377z" fill="#000"/><path d="m233.33 15.1541h-7.377l-.152.1521h7.377z" fill="#8e2de2" opacity=".1"/><path d="m218.195 22.9115v4.6392h.076v-4.7153z" fill="#000"/><path d="m218.195 22.9115v4.6392h.076v-4.7153z" fill="#8e2de2" opacity=".1"/><path d="m233.862 14.6978 1.597-1.6731h-7.377l-1.673 1.6731z" fill="#000"/><path d="m233.862 14.6978 1.597-1.6731h-7.377l-1.673 1.6731z" fill="#8e2de2" opacity=".1"/><path d="m220.553 25.8774h-.532v1.6732h.532z" fill="#000"/><path d="m220.553 25.8774h-.532v1.6732h.532z" fill="#8e2de2" opacity=".1"/><path d="m220.021 28.4634.456-.4563h-.456z" fill="#000"/><path d="m220.021 28.4634.456-.4563h-.456z" fill="#8e2de2" opacity=".1"/><path d="m222.15 26.3338.456-.4564h-.456z" fill="#000"/><path d="m222.15 26.3338.456-.4564h-.456z" fill="#8e2de2" opacity=".1"/><path d="m209.145 39.0347c-.228-.1521-.456-.3042-.685-.4563.153.3042.381.5323.609.8366l.304-.3043c-.076 0-.152 0-.228-.076z" fill="#000"/><path d="m209.145 39.0347c-.228-.1521-.456-.3042-.685-.4563.153.3042.381.5323.609.8366l.304-.3043c-.076 0-.152 0-.228-.076z" fill="#8e2de2" opacity=".1"/><path d="m150.965 96.8348c-.381-.0761-.685-.2282-1.065-.3803-.533-.3042-1.065-.6084-1.597-.9887.304.4563.684.8366 1.064 1.2169.381.3802.837.7605 1.293 1.0647l.685-.6845c-.076-.076-.228-.1521-.38-.2281z" fill="#000"/><path d="m150.965 96.8348c-.381-.0761-.685-.2282-1.065-.3803-.533-.3042-1.065-.6084-1.597-.9887.304.4563.684.8366 1.064 1.2169.381.3802.837.7605 1.293 1.0647l.685-.6845c-.076-.076-.228-.1521-.38-.2281z" fill="#8e2de2" opacity=".1"/><path d="m162.373 82.917h-.533v1.6731h.533z" fill="#000"/><path d="m162.373 82.917h-.533v1.6731h.533z" fill="#8e2de2" opacity=".1"/><path d="m150.965 93.9446c-.229-.1521-.457-.3042-.685-.4563.304.4563.609.9126 1.065 1.3689.38.3803.836.6845 1.293.9887l1.369-1.3689h-.989c-.684 0-1.369-.1521-2.053-.5324z" fill="#000"/><path d="m150.965 93.9446c-.229-.1521-.457-.3042-.685-.4563.304.4563.609.9126 1.065 1.3689.38.3803.836.6845 1.293.9887l1.369-1.3689h-.989c-.684 0-1.369-.1521-2.053-.5324z" fill="#8e2de2" opacity=".1"/><path d="m163.97 83.0691h1.445l.152-.1521h-1.597z" fill="#000"/><path d="m163.97 83.0691h1.445l.152-.1521h-1.597z" fill="#8e2de2" opacity=".1"/><path d="m178.42 70.0642h-7.378l-.152.1521h7.454z" fill="#000"/><path d="m178.42 70.0642h-7.378l-.152.1521h7.454z" fill="#8e2de2" opacity=".1"/><path d="m178.952 69.5319 1.673-1.5971h-7.453l-1.673 1.5971z" fill="#000"/><path d="m178.952 69.5319 1.673-1.5971h-7.453l-1.673 1.5971z" fill="#8e2de2" opacity=".1"/><path d="m157.809 84.5902h2.282v-1.6731h-.532v-1.369l-1.75 1.7492z" fill="#000"/><path d="m157.809 84.5902h2.282v-1.6731h-.532v-1.369l-1.75 1.7492z" fill="#8e2de2" opacity=".1"/><path d="m160.015 81.0919v1.369h.076v-1.445z" fill="#000"/><path d="m160.015 81.0919v1.369h.076v-1.445z" fill="#8e2de2" opacity=".1"/><path d="m148.075 93.0322-.457.4563c.076.0761.152.1521.228.2282.381.3803.761.6845 1.141.9887-.228-.3803-.456-.7605-.684-1.1408-.152-.1521-.152-.3803-.228-.5324z" fill="#000"/><path d="m148.075 93.0322-.457.4563c.076.0761.152.1521.228.2282.381.3803.761.6845 1.141.9887-.228-.3803-.456-.7605-.684-1.1408-.152-.1521-.152-.3803-.228-.5324z" fill="#8e2de2" opacity=".1"/><path d="m162.373 80.7876h-.533v1.6732h.533z" fill="#000"/><path d="m162.373 80.7876h-.533v1.6732h.533z" fill="#8e2de2" opacity=".1"/><path d="m186.785 58.048c.685 0 1.445.1521 2.13.5324.076 0 .076.076.152.076.228 0 .456 0 .761.0761l.836-.8366c-.532-.1521-1.065-.2282-1.597-.2282h-5.628l-.38.3803z" fill="#000"/><path d="m186.785 58.048c.685 0 1.445.1521 2.13.5324.076 0 .076.076.152.076.228 0 .456 0 .761.0761l.836-.8366c-.532-.1521-1.065-.2282-1.597-.2282h-5.628l-.38.3803z" fill="#8e2de2" opacity=".1"/><path d="m163.97 80.7876v1.6732h2.053l1.673-1.6732z" fill="#000"/><path d="m163.97 80.7876v1.6732h2.053l1.673-1.6732z" fill="#8e2de2" opacity=".1"/><path d="m199.562 41.5444-.684.6845h.684z" fill="#13b6e2"/><path d="m199.562 41.5444-.684.6845h.684z" fill="#8e2de2" opacity=".1"/><path d="m233.862 14.6978h-7.453l-.456.4563h7.377z" fill="#13b6e2"/><path d="m233.862 14.6978h-7.453l-.456.4563h7.377z" fill="#8e2de2" opacity=".1"/><path d="m206.559 40.5557c.304.2282.533.3803.837.5324l.684-.6845c-.304-.1521-.684-.3803-.988-.6084-.381-.3042-.761-.6084-1.141-.9887-.304-.3042-.533-.6084-.837-.9127-.304-.3802-.532-.7605-.76-1.2168l-.685.6845c.457.7605.989 1.445 1.673 2.1295.381.3802.761.7605 1.217 1.0647z" fill="#13b6e2"/><path d="m206.559 40.5557c.304.2282.533.3803.837.5324l.684-.6845c-.304-.1521-.684-.3803-.988-.6084-.381-.3042-.761-.6084-1.141-.9887-.304-.3042-.533-.6084-.837-.9127-.304-.3802-.532-.7605-.76-1.2168l-.685.6845c.457.7605.989 1.445 1.673 2.1295.381.3802.761.7605 1.217 1.0647z" fill="#8e2de2" opacity=".1"/><path d="m220.02 27.5508h-1.749-.076v-4.6392l-.456.4563v4.6392h.532 1.749.457l.456-.4563h-.456z" fill="#13b6e2"/><path d="m220.02 27.5508h-1.749-.076v-4.6392l-.456.4563v4.6392h.532 1.749.457l.456-.4563h-.456z" fill="#8e2de2" opacity=".1"/><path d="m224.279 16.8274-4.411 4.411v4.6393h.152.457 1.673.456l9.051-9.0503z" fill="#13b6e2"/><path d="m224.279 16.8274-4.411 4.411v4.6393h.152.457 1.673.456l9.051-9.0503z" fill="#8e2de2" opacity=".1"/><path d="m237.969 3.13794-9.887 9.88686h7.377l9.887-9.88686c-.152 0-.228 0-.38 0z" fill="#13b6e2"/><path d="m237.969 3.13794-9.887 9.88686h7.377l9.887-9.88686c-.152 0-.228 0-.38 0z" fill="#8e2de2" opacity=".1"/><path d="m209.373 39.1106 9.431-9.4305h-.533-2.281v-4.5632l-10.344 10.3432c.077.0761.077.2282.153.3042.38.6845.836 1.369 1.445 1.9013.38.3803.76.6845 1.216.9127.229.1521.457.3042.685.4563.076.076.152.076.228.076z" fill="#13b6e2"/><path d="m209.373 39.1106 9.431-9.4305h-.533-2.281v-4.5632l-10.344 10.3432c.077.0761.077.2282.153.3042.38.6845.836 1.369 1.445 1.9013.38.3803.76.6845 1.216.9127.229.1521.457.3042.685.4563.076.076.152.076.228.076z" fill="#8e2de2" opacity=".1"/><path d="m169.369 71.7373-7.681 7.6813v1.369h.152.456 1.674 3.726l9.05-9.0503z" fill="#13b6e2"/><path d="m169.369 71.7373-7.681 7.6813v1.369h.152.456 1.674 3.726l9.05-9.0503z" fill="#8e2de2" opacity=".1"/><path d="m161.84 84.5902h-1.749-2.282v-1.2928l-9.05 9.0502c.076.0761.152.1521.228.2282.38.3802.761.6845 1.217.9126.228.1521.456.3042.684.4563.685.3803 1.369.5324 2.13.5324h.989l9.887-9.8869h-1.598z" fill="#13b6e2"/><path d="m161.84 84.5902h-1.749-2.282v-1.2928l-9.05 9.0502c.076.0761.152.1521.228.2282.38.3802.761.6845 1.217.9126.228.1521.456.3042.684.4563.685.3803 1.369.5324 2.13.5324h.989l9.887-9.8869h-1.598z" fill="#8e2de2" opacity=".1"/><path d="m188.915 58.5802c-.685-.3802-1.445-.5323-2.13-.5323h-3.726l-9.887 9.8868h7.377l8.974-8.9742c-.152-.0761-.304-.2282-.456-.3042-.076-.0761-.076-.0761-.152-.0761z" fill="#13b6e2"/><path d="m188.915 58.5802c-.685-.3802-1.445-.5323-2.13-.5323h-3.726l-9.887 9.8868h7.377l8.974-8.9742c-.152-.0761-.304-.2282-.456-.3042-.076-.0761-.076-.0761-.152-.0761z" fill="#8e2de2" opacity=".1"/><path d="m178.952 69.5317h-7.453l-.456.5324h7.377z" fill="#13b6e2"/><path d="m178.952 69.5317h-7.453l-.456.5324h7.377z" fill="#8e2de2" opacity=".1"/><path d="m186.785 56.3747c.913 0 1.902.2281 2.814.6845.457.2281.837.4563 1.217.6844l.685-.6844c-.457-.3803-.989-.6845-1.521-.9127-1.065-.5324-2.13-.7605-3.195-.7605h-1.064l-.989.9887z" fill="#13b6e2"/><path d="m186.785 56.3747c.913 0 1.902.2281 2.814.6845.457.2281.837.4563 1.217.6844l.685-.6844c-.457-.3803-.989-.6845-1.521-.9127-1.065-.5324-2.13-.7605-3.195-.7605h-1.064l-.989.9887z" fill="#8e2de2" opacity=".1"/><path d="m162.296 82.4607h-.456-1.749-.076v-1.3689l-.456.4563v1.369h.532 1.749.456 1.674 1.597l.456-.4564h-2.053z" fill="#13b6e2"/><path d="m162.296 82.4607h-.456-1.749-.076v-1.3689l-.456.4563v1.369h.532 1.749.456 1.674 1.597l.456-.4564h-2.053z" fill="#8e2de2" opacity=".1"/><path d="m148.379 95.4658c.532.3802.989.6844 1.597.9886.38.1522.684.3043 1.065.3803.152.0761.38.0761.532.1521l.837-.8366c-.685-.076-1.445-.3042-2.13-.6084-.456-.2281-.912-.4563-1.369-.7605-.38-.3042-.76-.6084-1.141-.9887-.076-.0761-.152-.1521-.228-.2281l-.608.6084c.076.076.152.1521.228.2281.38.3803.761.7606 1.217 1.0648z" fill="#13b6e2"/><path d="m148.379 95.4658c.532.3802.989.6844 1.597.9886.38.1522.684.3043 1.065.3803.152.0761.38.0761.532.1521l.837-.8366c-.685-.076-1.445-.3042-2.13-.6084-.456-.2281-.912-.4563-1.369-.7605-.38-.3042-.76-.6084-1.141-.9887-.076-.0761-.152-.1521-.228-.2281l-.608.6084c.076.076.152.1521.228.2281.38.3803.761.7606 1.217 1.0648z" fill="#8e2de2" opacity=".1"/></svg>