<svg width="50" height="50" viewBox="0 0 50 50" fill="none" xmlns="http://www.w3.org/2000/svg">
<path fill-rule="evenodd" clip-rule="evenodd" d="M6.24992 12.5H43.7499C46.0416 12.5 47.9166 14.375 47.9166 16.6667V33.3333C47.9166 35.625 46.0416 37.5 43.7499 37.5H6.24992C3.95825 37.5 2.08325 35.625 2.08325 33.3333V16.6667C2.08325 14.375 3.95825 12.5 6.24992 12.5ZM16.6666 27.0833H22.9166V22.9167H16.6666V16.6667H12.4999V22.9167H6.24992V27.0833H12.4999V33.3333H16.6666V27.0833ZM32.2916 31.25C30.5624 31.25 29.1666 29.8542 29.1666 28.125C29.1666 26.3958 30.5624 25 32.2916 25C34.0208 25 35.4166 26.3958 35.4166 28.125C35.4166 29.8542 34.0208 31.25 32.2916 31.25ZM37.4999 21.875C37.4999 23.6042 38.8958 25 40.6249 25C42.3541 25 43.7499 23.6042 43.7499 21.875C43.7499 20.1458 42.3541 18.75 40.6249 18.75C38.8958 18.75 37.4999 20.1458 37.4999 21.875Z" fill="white"/>
</svg>
