<svg width="100" height="100" viewBox="0 0 100 100" fill="none" xmlns="http://www.w3.org/2000/svg">
<path d="M50 100C77.6142 100 100 77.6142 100 50C100 22.3858 77.6142 0 50 0C22.3858 0 0 22.3858 0 50C0 77.6142 22.3858 100 50 100Z" fill="#FF456A"/>
<path d="M50 95.5602C74.6281 95.5602 94.5931 75.1622 94.5931 49.9999C94.5931 24.8377 74.6281 4.4397 50 4.4397C25.3719 4.4397 5.40686 24.8377 5.40686 49.9999C5.40686 75.1622 25.3719 95.5602 50 95.5602Z" fill="#011566"/>
<path d="M76.1777 26.2158C76.3551 26.2158 76.4989 26.0738 76.4989 25.8987C76.4989 25.7235 76.3551 25.5815 76.1777 25.5815C76.0003 25.5815 75.8564 25.7235 75.8564 25.8987C75.8564 26.0738 76.0003 26.2158 76.1777 26.2158Z" fill="#0091D4"/>
<path d="M19.4325 36.4165C19.6099 36.4165 19.7537 36.2745 19.7537 36.0994C19.7537 35.9242 19.6099 35.7822 19.4325 35.7822C19.2551 35.7822 19.1113 35.9242 19.1113 36.0994C19.1113 36.2745 19.2551 36.4165 19.4325 36.4165Z" fill="#0091D4"/>
<path d="M37.8481 16.7549C38.0254 16.7549 38.1693 16.6129 38.1693 16.4377C38.1693 16.2626 38.0254 16.1206 37.8481 16.1206C37.6707 16.1206 37.5269 16.2626 37.5269 16.4377C37.5269 16.6129 37.6707 16.7549 37.8481 16.7549Z" fill="#0091D4"/>
<path d="M87.6874 32.4524C87.8648 32.4524 88.0086 32.3104 88.0086 32.1352C88.0086 31.9601 87.8648 31.8181 87.6874 31.8181C87.51 31.8181 87.3662 31.9601 87.3662 32.1352C87.3662 32.3104 87.51 32.4524 87.6874 32.4524Z" fill="#0091D4"/>
<path d="M15.0963 58.6152C15.2737 58.6152 15.4175 58.4732 15.4175 58.2981C15.4175 58.1229 15.2737 57.981 15.0963 57.981C14.919 57.981 14.7751 58.1229 14.7751 58.2981C14.7751 58.4732 14.919 58.6152 15.0963 58.6152Z" fill="#0091D4"/>
<path d="M9.95719 50.3171C10.1346 50.3171 10.2784 50.1751 10.2784 50C10.2784 49.8248 10.1346 49.6829 9.95719 49.6829C9.77979 49.6829 9.63599 49.8248 9.63599 50C9.63599 50.1751 9.77979 50.3171 9.95719 50.3171Z" fill="#0091D4"/>
<path d="M23.9292 21.1418C24.491 21.1418 24.9464 20.6921 24.9464 20.1375C24.9464 19.5829 24.491 19.1333 23.9292 19.1333C23.3675 19.1333 22.9121 19.5829 22.9121 20.1375C22.9121 20.6921 23.3675 21.1418 23.9292 21.1418Z" fill="#FF456A"/>
<path d="M13.5975 38.7421C14.1592 38.7421 14.6146 38.2925 14.6146 37.7379C14.6146 37.1833 14.1592 36.7336 13.5975 36.7336C13.0357 36.7336 12.5803 37.1833 12.5803 37.7379C12.5803 38.2925 13.0357 38.7421 13.5975 38.7421Z" fill="#FF456A"/>
<path opacity="0.8" d="M21.7345 28.3828C21.9119 28.3828 22.0557 28.2408 22.0557 28.0657C22.0557 27.8905 21.9119 27.7485 21.7345 27.7485C21.5571 27.7485 21.4133 27.8905 21.4133 28.0657C21.4133 28.2408 21.5571 28.3828 21.7345 28.3828Z" fill="white"/>
<path opacity="0.8" d="M86.349 38.7422C86.5264 38.7422 86.6702 38.6002 86.6702 38.425C86.6702 38.2499 86.5264 38.1079 86.349 38.1079C86.1716 38.1079 86.0278 38.2499 86.0278 38.425C86.0278 38.6002 86.1716 38.7422 86.349 38.7422Z" fill="white"/>
<path opacity="0.8" d="M9.95719 43.2346C10.1346 43.2346 10.2784 43.0926 10.2784 42.9175C10.2784 42.7423 10.1346 42.6003 9.95719 42.6003C9.77979 42.6003 9.63599 42.7423 9.63599 42.9175C9.63599 43.0926 9.77979 43.2346 9.95719 43.2346Z" fill="white"/>
<path opacity="0.8" d="M79.2827 34.6723C79.4897 34.6723 79.6574 34.5067 79.6574 34.3024C79.6574 34.098 79.4897 33.9324 79.2827 33.9324C79.0757 33.9324 78.908 34.098 78.908 34.3024C78.908 34.5067 79.0757 34.6723 79.2827 34.6723Z" fill="white"/>
<path opacity="0.8" d="M41.3811 11.3635C41.588 11.3635 41.7558 11.1978 41.7558 10.9935C41.7558 10.7892 41.588 10.6235 41.3811 10.6235C41.1741 10.6235 41.0063 10.7892 41.0063 10.9935C41.0063 11.1978 41.1741 11.3635 41.3811 11.3635Z" fill="white"/>
<path opacity="0.8" d="M13.9721 32.5053C14.1791 32.5053 14.3469 32.3397 14.3469 32.1354C14.3469 31.931 14.1791 31.7654 13.9721 31.7654C13.7652 31.7654 13.5974 31.931 13.5974 32.1354C13.5974 32.3397 13.7652 32.5053 13.9721 32.5053Z" fill="white"/>
<path opacity="0.8" d="M15.4712 53.9641C15.6781 53.9641 15.8459 53.7984 15.8459 53.5941C15.8459 53.3898 15.6781 53.2241 15.4712 53.2241C15.2642 53.2241 15.0964 53.3898 15.0964 53.5941C15.0964 53.7984 15.2642 53.9641 15.4712 53.9641Z" fill="white"/>
<path opacity="0.8" d="M9.63596 62.4736C9.84292 62.4736 10.0107 62.3079 10.0107 62.1036C10.0107 61.8993 9.84292 61.7336 9.63596 61.7336C9.429 61.7336 9.26123 61.8993 9.26123 62.1036C9.26123 62.3079 9.429 62.4736 9.63596 62.4736Z" fill="white"/>
<path opacity="0.4" d="M30.7281 16.5434C31.0829 16.5434 31.3705 16.2594 31.3705 15.9092C31.3705 15.5589 31.0829 15.2749 30.7281 15.2749C30.3733 15.2749 30.0857 15.5589 30.0857 15.9092C30.0857 16.2594 30.3733 16.5434 30.7281 16.5434Z" fill="white"/>
<path opacity="0.4" d="M83.7259 50.6342C84.0807 50.6342 84.3683 50.3503 84.3683 50C84.3683 49.6497 84.0807 49.3657 83.7259 49.3657C83.3711 49.3657 83.0835 49.6497 83.0835 50C83.0835 50.3503 83.3711 50.6342 83.7259 50.6342Z" fill="white"/>
<path opacity="0.4" d="M83.137 27.4841C83.4918 27.4841 83.7794 27.2001 83.7794 26.8498C83.7794 26.4995 83.4918 26.2156 83.137 26.2156C82.7822 26.2156 82.4946 26.4995 82.4946 26.8498C82.4946 27.2001 82.7822 27.4841 83.137 27.4841Z" fill="white"/>
<path d="M52.4625 10.2009C52.8172 10.2009 53.1049 9.91691 53.1049 9.56662C53.1049 9.21634 52.8172 8.93237 52.4625 8.93237C52.1077 8.93237 51.8201 9.21634 51.8201 9.56662C51.8201 9.91691 52.1077 10.2009 52.4625 10.2009Z" fill="#48F7F7"/>
<path d="M76.1777 20.1904C76.4733 20.1904 76.713 19.9537 76.713 19.6618C76.713 19.3699 76.4733 19.1333 76.1777 19.1333C75.882 19.1333 75.6423 19.3699 75.6423 19.6618C75.6423 19.9537 75.882 20.1904 76.1777 20.1904Z" fill="#FF456A"/>
<path d="M75.1606 46.2473C75.4562 46.2473 75.6959 46.0106 75.6959 45.7187C75.6959 45.4268 75.4562 45.1902 75.1606 45.1902C74.8649 45.1902 74.6252 45.4268 74.6252 45.7187C74.6252 46.0106 74.8649 46.2473 75.1606 46.2473Z" fill="#FF456A"/>
<path d="M60.7067 16.9663C61.0024 16.9663 61.242 16.7296 61.242 16.4377C61.242 16.1458 61.0024 15.9092 60.7067 15.9092C60.4111 15.9092 60.1714 16.1458 60.1714 16.4377C60.1714 16.7296 60.4111 16.9663 60.7067 16.9663Z" fill="#FF456A"/>
<path d="M90.4711 48.8901C90.7668 48.8901 91.0065 48.6535 91.0065 48.3615C91.0065 48.0696 90.7668 47.833 90.4711 47.833C90.1755 47.833 89.9358 48.0696 89.9358 48.3615C89.9358 48.6535 90.1755 48.8901 90.4711 48.8901Z" fill="#FF456A"/>
<path d="M85.8137 58.351C86.1093 58.351 86.349 58.1144 86.349 57.8225C86.349 57.5306 86.1093 57.2939 85.8137 57.2939C85.518 57.2939 85.2783 57.5306 85.2783 57.8225C85.2783 58.1144 85.518 58.351 85.8137 58.351Z" fill="#FF456A"/>
<path d="M82.1733 44.0805C82.8238 44.0805 83.3511 43.5599 83.3511 42.9177C83.3511 42.2755 82.8238 41.7549 82.1733 41.7549C81.5229 41.7549 80.9956 42.2755 80.9956 42.9177C80.9956 43.5599 81.5229 44.0805 82.1733 44.0805Z" fill="#48F7F7"/>
<path d="M69.0044 17.2304C69.6548 17.2304 70.1821 16.7098 70.1821 16.0676C70.1821 15.4254 69.6548 14.9048 69.0044 14.9048C68.3539 14.9048 67.8267 15.4254 67.8267 16.0676C67.8267 16.7098 68.3539 17.2304 69.0044 17.2304Z" fill="#48F7F7"/>
<path d="M19.4326 46.1945C20.0831 46.1945 20.6103 45.6739 20.6103 45.0317C20.6103 44.3895 20.0831 43.8689 19.4326 43.8689C18.7822 43.8689 18.2549 44.3895 18.2549 45.0317C18.2549 45.6739 18.7822 46.1945 19.4326 46.1945Z" fill="#48F7F7"/>
<g clip-path="url(#clip0)">
<path d="M43.814 81.0075L47.0255 79.1761L50.6318 81.0075L60.069 76.2673V73.3585L59.6743 73.0568L66.9945 57.3061L65.6489 55.4747L66.3845 48.6444L66.4562 47.9118L63.6932 46.9637L69.0578 39.7887L66.7971 28.5413L58.7234 31.2561L57.019 30.265L53.5562 33.734L51.2059 38.1942L52.103 36.4705L49.0529 33.9279L47.5817 35.7379L47.7432 35.5439L37.1935 30.3296L32.5466 39.013L32.116 39.7887L32.6543 41.0815L34.879 46.5543L36.6194 58.1896L35.7941 58.6851L36.6194 58.1896L34.879 46.5543L32.116 39.7887L33.4975 48.2996L30.0348 48.6875L29.066 54.4835L26.2312 54.2896L28.0074 66.248L34.3229 70.4066L31.6675 72.4104L33.4975 77.9048L38.7185 76.6982L42.4863 81.3954L43.814 81.0075Z" fill="url(#paint0_linear)"/>
<path opacity="0.34" d="M44.2087 53.7078L56.2834 62.3265L56.104 62.4342C56.0681 62.4557 55.9964 62.4988 55.9425 62.5419C54.4893 63.4469 48.8556 66.959 46.577 68.2949C46.577 68.2733 46.5591 68.2733 46.5591 68.2518C46.4873 68.0579 46.3976 67.8424 46.2361 67.5838C45.8055 66.8297 45.5005 66.248 45.357 66.248C45.1238 63.7485 44.7649 59.9563 44.5137 57.1983L44.4061 56.0564C44.3882 55.884 44.3702 55.7116 44.3523 55.5608C44.3343 55.41 44.3164 55.2591 44.3164 55.1298V55.0868C44.2984 54.9575 44.2984 54.8282 44.2805 54.7205L44.2087 53.7078Z" fill="white"/>
<path opacity="0.77" d="M31.4343 61.2707L44.1908 53.7078L44.2805 54.7205L44.3164 55.0868V55.1298L44.3523 55.5608L44.4061 56.0564L44.5137 57.1983L45.357 66.248C45.2314 66.2695 45.1417 66.485 45.0699 67.3899C45.034 67.8855 44.9264 68.1872 44.8367 68.4242L31.4343 61.2707Z" fill="white"/>
<path opacity="0.01" d="M44.998 75.5346L45.4107 71.1175C45.4825 71.4407 45.4286 71.5485 45.8234 70.7297C46.2181 69.9109 46.5769 69.954 46.6487 69.3076C46.6846 68.8982 46.7025 68.6181 46.5948 68.2734C46.5948 68.2518 46.5769 68.2518 46.5769 68.2303L55.9424 62.5204L56.1039 62.4127L56.2833 62.3049L54.3636 66.9806L50.8111 72.2164L44.998 75.5346Z" fill="white"/>
<path opacity="0.35" d="M44.8546 68.4243C44.7829 68.6182 44.7111 68.769 44.7111 68.9629C44.6752 69.4154 44.8008 69.6955 44.8367 69.7817C45.1596 70.622 45.3391 70.7944 45.4108 71.1176L44.9982 75.5347L43.1322 74.2203L41.8404 74.7806V74.2203L34.8971 70.7944L31.4343 61.2708L44.8546 68.4243Z" fill="white"/>
<path opacity="0.49" d="M44.711 68.9629C44.7289 68.769 44.7827 68.5966 44.8545 68.4243C44.9442 68.1873 45.0519 67.8856 45.0877 67.39C45.1595 66.4851 45.2492 66.2696 45.3748 66.248C45.5004 66.248 45.8234 66.8298 46.254 67.5839C46.3975 67.8425 46.5051 68.058 46.5769 68.2519C46.5769 68.2734 46.5769 68.2734 46.5948 68.295C46.7025 68.6397 46.6846 68.9198 46.6487 69.3292C46.5948 69.9756 46.2181 69.9325 45.8234 70.7513C45.4286 71.5701 45.4825 71.4624 45.4107 71.1392C45.3389 70.816 45.1416 70.6436 44.8366 69.8033C44.8007 69.7171 44.6751 69.437 44.711 68.9629Z" fill="white"/>
<path opacity="0.02" d="M35.5609 58.8144L35.1662 56.8967L31.4343 58.405V61.2707L35.5609 58.8144Z" fill="white"/>
<path opacity="0.73" d="M26.2312 54.2896L31.4343 58.405V61.2707L32.4031 63.9425L28.0074 66.248L26.2312 54.2896Z" fill="white"/>
<path opacity="0.16" d="M34.879 70.7942L28.0073 66.2479L32.403 63.9424L34.879 70.7942Z" fill="white"/>
<path opacity="0.45" d="M35.1661 56.8967L34.879 54.8498L26.2312 54.2896L31.4343 58.405L35.1661 56.8967Z" fill="white"/>
<path opacity="0.34" d="M42.4863 78.2495L43.1322 74.2202L44.9981 75.5346L45.967 76.2241L47.0255 79.176L42.4863 78.2495Z" fill="white"/>
<path opacity="0.8" d="M38.7185 76.6981L41.8403 74.7804L43.1321 74.2202L42.4862 78.2495L38.7185 76.6981Z" fill="white"/>
<path opacity="0.34" d="M42.4862 81.3954L38.7185 76.6982L42.4862 78.2496V81.3954Z" fill="white"/>
<path opacity="0.16" d="M43.814 81.0075L42.4863 81.3954V78.2495L43.814 81.0075Z" fill="white"/>
<path opacity="0.01" d="M47.0255 79.176L43.814 81.0075L42.4863 78.2495L47.0255 79.176Z" fill="white"/>
<path opacity="0.34" d="M38.7186 76.6983L33.4976 77.9049L35.5608 74.3281L38.7186 76.6983Z" fill="white"/>
<path opacity="0.01" d="M41.8403 74.2202V74.7804L38.7185 76.6981L35.5608 74.3279L41.8403 74.2202Z" fill="white"/>
<path opacity="0.86" d="M33.4975 77.9048L31.6675 72.4104L35.5608 74.3281L33.4975 77.9048Z" fill="white"/>
<path opacity="0.8" d="M34.3228 70.4065L35.5608 74.328L31.6675 72.4103L34.3228 70.4065Z" fill="white"/>
<path opacity="0.34" d="M41.8403 74.2203C41.6967 74.2203 35.5787 74.328 35.5787 74.328L34.3228 70.4065L41.8403 74.2203Z" fill="white"/>
<path opacity="0.2" d="M47.0256 79.176L50.6318 81.0075L50.2371 78.6589L45.967 76.2241L47.0256 79.176Z" fill="white"/>
<path opacity="0.21" d="M44.998 75.5347L50.8111 72.2166L53.2512 73.3585L44.998 75.5347Z" fill="white"/>
<path opacity="0.8" d="M50.237 78.6589L53.2512 73.3584L44.998 75.5346L45.9669 76.2241L50.237 78.6589Z" fill="white"/>
<path opacity="0.08" d="M50.8113 72.2164L56.2835 70.4065L53.2513 73.3584L50.8113 72.2164Z" fill="white"/>
<path opacity="0.09" d="M50.6318 81.0075L60.069 76.2672V73.3584L50.2371 78.6589L50.6318 81.0075Z" fill="white"/>
<path opacity="0.01" d="M56.2833 70.4065L60.069 73.3584H53.2512L56.2833 70.4065Z" fill="white"/>
<path opacity="0.16" d="M50.2371 78.6589L60.069 73.3584H53.2512L50.2371 78.6589Z" fill="white"/>
<path opacity="0.73" d="M29.0659 54.4836L30.0348 48.6875L33.6948 54.0742L33.4975 54.7637L29.0659 54.4836Z" fill="white"/>
<path opacity="0.5" d="M33.4976 48.2996L30.0349 48.6874L33.695 54.0741L34.4844 53.2984L33.4976 48.2996Z" fill="white"/>
<path opacity="0.16" d="M34.8791 54.85L33.4976 54.7638L33.6949 54.0743L34.4843 53.2986L34.8791 54.85Z" fill="white"/>
<path opacity="0.16" d="M60.0689 47.8687L62.5628 43.2577L56.2833 39.3147L48.7119 51.1869L52.2823 48.6875L53.2511 47.8041L59.2257 47.1146L60.0689 47.8687Z" fill="white"/>
<path opacity="0.78" d="M66.7972 28.5413L62.563 43.2577L56.2834 39.3146L66.7972 28.5413Z" fill="white"/>
<path opacity="0.6" d="M64.9313 43.2577H62.563L66.7972 28.5413L64.9313 43.2577Z" fill="white"/>
<path opacity="0.01" d="M69.0577 39.7887L66.7971 28.5413L64.9312 43.2577L69.0577 39.7887Z" fill="white"/>
<path opacity="0.85" d="M56.2833 39.3146L53.5562 33.734L57.0189 30.265L58.7233 31.2561L66.797 28.5413L56.2833 39.3146Z" fill="white"/>
<path opacity="0.39" d="M48.712 51.1867L48.2993 43.6669L53.5562 33.7339L56.2833 39.3145L48.712 51.1867Z" fill="white"/>
<path opacity="0.08" d="M59.0643 72.5827L61.5402 62.305L56.2833 59.9348V62.305L55.153 65.0629L53.9509 71.1822L56.2833 70.4065L59.0643 72.5827Z" fill="white"/>
<path opacity="0.02" d="M66.9944 57.3062L61.5402 62.305L59.0642 72.5828L59.6742 73.0568L66.9944 57.3062Z" fill="white"/>
<path opacity="0.21" d="M49.053 57.1553L56.2834 59.9348V62.3049L49.053 57.1553Z" fill="white"/>
<path opacity="0.45" d="M47.0076 55.7116L48.712 51.1868L50.6318 52.9536L49.0529 57.1552L47.0076 55.7116Z" fill="white"/>
<path opacity="0.49" d="M53.2511 47.804L50.6317 52.9536L48.7119 51.1868L52.2823 48.6874L53.2511 47.804Z" fill="white"/>
<path opacity="0.73" d="M59.2256 47.1145L55.1529 52.9537H50.6316L53.2511 47.804L59.2256 47.1145Z" fill="white"/>
<path opacity="0.86" d="M49.053 57.1552L55.1531 52.9536H50.6318L49.053 57.1552Z" fill="white"/>
<path opacity="0.73" d="M56.2834 59.9348L55.1531 52.9536L49.053 57.1552L56.2834 59.9348Z" fill="white"/>
<path opacity="0.49" d="M61.5403 62.3049L55.1531 52.9536L56.2834 59.9348L61.5403 62.3049Z" fill="white"/>
<path opacity="0.45" d="M66.9945 57.3061L60.0691 47.8686L59.2258 47.1145L55.1531 52.9537L61.5403 62.305L66.9945 57.3061Z" fill="white"/>
<path opacity="0.67" d="M48.2993 43.6671L47.4561 35.9103L49.0529 33.928L50.865 38.7975L48.2993 43.6671Z" fill="white"/>
<path opacity="0.31" d="M52.103 36.4705L49.053 33.928L50.8651 38.7975L52.103 36.4705Z" fill="white"/>
<path opacity="0.2" d="M64.9313 43.2576L61.5403 49.8724L60.0691 47.8686L62.563 43.2576H64.9313Z" fill="white"/>
<path opacity="0.12" d="M69.0578 39.7886L61.5403 49.8724L64.9312 43.2576L69.0578 39.7886Z" fill="white"/>
<path opacity="0.16" d="M65.6489 55.4746L61.5403 49.8724L63.6933 46.9636L66.4563 47.9117L65.6489 55.4746Z" fill="white"/>
<path opacity="0.2" d="M64.644 50.3035C64.644 50.3035 65.8641 49.2262 66.0435 48.9892C66.2229 48.7521 66.3664 48.666 66.3664 48.666L66.4382 47.9334L65.9538 47.761C65.9538 47.761 65.9897 48.1704 65.8282 48.472C65.6667 48.7306 64.644 50.3035 64.644 50.3035Z" fill="white"/>
<path opacity="0.16" d="M44.2087 40.0472C44.7111 39.1637 45.3211 38.7975 44.6573 39.056L46.29 37.3323L47.9585 40.5643L48.2994 43.667L48.7121 51.1868L47.0076 55.6901L44.2087 53.6862L43.3655 47.1145C43.4014 46.4681 43.4372 45.4554 43.4552 44.9814C43.509 44.0549 43.4193 43.6024 43.3296 42.4388C43.2219 41.2969 43.7064 40.9306 44.2087 40.0472Z" fill="white"/>
<path opacity="0.4" d="M32.6543 41.0815C32.6543 41.0815 33.1028 40.8445 33.677 40.7799C34.2511 40.7152 34.5202 40.6506 34.8611 40.6506C35.202 40.6506 36.2785 40.5213 36.0632 40.3274L41.5892 41.0815C41.7148 41.4694 41.8224 41.8788 41.9301 42.202C42.2351 43.1716 42.0198 42.8699 42.5939 43.7964C43.1681 44.7014 42.9169 45.197 43.1501 47.1146C43.2578 48.0842 43.3295 47.7826 43.3834 47.1146L44.2266 53.6864L36.6373 58.1896L34.897 46.5544L32.6543 41.0815Z" fill="white"/>
<path opacity="0.5" d="M35.5608 58.8143L36.6193 58.1895L34.879 46.5542L32.116 39.7886L33.4975 48.2995L34.4843 53.2984L34.879 54.8497L35.166 56.8967L35.5608 58.8143Z" fill="white"/>
<path opacity="0.86" d="M32.5466 39.0129L37.2114 30.3296L37.7856 31.5147C37.4806 31.5793 38.2162 32.3981 38.1982 33.2599C38.1803 34.1218 39.5259 35.8886 40.1897 37.1814C40.8536 38.4743 40.423 38.0218 41.0151 39.3361C41.1406 39.6162 41.3559 40.3488 41.5712 41.103L36.0452 40.3488C35.8299 40.1549 34.879 39.5947 33.8922 39.4654C32.9055 39.293 32.5466 39.0129 32.5466 39.0129Z" fill="white"/>
<path opacity="0.73" d="M32.116 39.7886L32.5466 39.0129C32.5466 39.0129 32.9233 39.293 33.9101 39.4439C34.8969 39.5947 35.8478 40.1334 36.0631 40.3273C36.2784 40.5212 35.2019 40.6505 34.861 40.6505C34.5201 40.6505 34.269 40.7151 33.6769 40.7798C33.1028 40.8444 32.6542 41.0814 32.6542 41.0814L32.116 39.7886Z" fill="white"/>
<path opacity="0.5" d="M47.7431 35.5439L47.4561 35.9102L47.9764 40.5643L46.3078 37.3323L44.6751 39.056C44.0113 39.3146 43.5269 40.4781 43.1322 40.3273C42.7195 40.1764 42.558 39.4223 41.7865 38.5389C41.033 37.6339 41.1048 36.6428 40.6562 35.7809C40.2077 34.919 39.6156 34.1434 38.9697 32.9367C38.3238 31.7086 38.1265 31.4716 37.8214 31.5147L37.2473 30.3296L47.7431 35.5439Z" fill="white"/>
<path opacity="0.8" d="M37.7854 31.5147C38.0904 31.4501 38.2878 31.7087 38.9337 32.9368C39.5796 34.165 40.1717 34.9191 40.6202 35.781C41.0687 36.6429 40.997 37.6556 41.7505 38.539C42.5041 39.4439 42.6835 40.1765 43.0961 40.3274C43.5088 40.4782 43.9753 39.3147 44.6391 39.0561C45.303 38.7975 44.6929 39.1638 44.1906 40.0473C43.6882 40.9307 43.2217 41.297 43.3114 42.4605C43.4011 43.624 43.4909 44.0765 43.437 45.003C43.4011 45.477 43.3832 46.4682 43.3473 47.1361C43.2935 47.7825 43.2397 48.0842 43.1141 47.1361C42.8808 45.2185 43.15 44.7229 42.5579 43.8179C41.9838 42.913 42.1991 43.1931 41.8941 42.2235C41.7864 41.9003 41.6788 41.4909 41.5532 41.103C41.3379 40.3489 41.1226 39.6163 40.997 39.3362C40.4049 38.0219 40.8355 38.4743 40.1717 37.1815C39.5078 35.8887 38.1622 34.1219 38.1801 33.26C38.216 32.3982 37.4804 31.5794 37.7854 31.5147Z" fill="white"/>
</g>
<defs>
<linearGradient id="paint0_linear" x1="59.7593" y1="73.9386" x2="34.8279" y2="36.8046" gradientUnits="userSpaceOnUse">
<stop stop-color="#FF27B0"/>
<stop offset="0.1223" stop-color="#EF3AA0"/>
<stop offset="0.371" stop-color="#C46C78"/>
<stop offset="0.7199" stop-color="#80BB38"/>
<stop offset="1" stop-color="#46FF00"/>
</linearGradient>
<clipPath id="clip0">
<rect width="42.8266" height="52.8541" fill="white" transform="translate(26.2312 28.5413)"/>
</clipPath>
</defs>
</svg>
